<mxfile host="app.diagrams.net" agent="Mozilla/5.0 (Macintosh; Intel Mac OS X 10_15_7) AppleWebKit/537.36 (KHTML, like Gecko) Chrome/132.0.0.0 Safari/537.36" version="26.0.10">
  <diagram name="Page-1" id="dEMNDoJ9rNlFnituSnVK">
    <mxGraphModel dx="1967" dy="1597" grid="1" gridSize="10" guides="1" tooltips="1" connect="1" arrows="1" fold="1" page="1" pageScale="1" pageWidth="850" pageHeight="1100" math="0" shadow="0">
      <root>
        <mxCell id="0" />
        <mxCell id="1" parent="0" />
        <mxCell id="DlH9ydsDUNCEq7BIyBJi-363" style="edgeStyle=orthogonalEdgeStyle;rounded=0;orthogonalLoop=1;jettySize=auto;html=1;startArrow=oval;startFill=0;strokeColor=#999999;" edge="1" parent="1">
          <mxGeometry relative="1" as="geometry">
            <mxPoint x="550" y="1040" as="targetPoint" />
            <mxPoint x="385" y="580" as="sourcePoint" />
            <Array as="points">
              <mxPoint x="550" y="580" />
              <mxPoint x="550" y="1001" />
            </Array>
          </mxGeometry>
        </mxCell>
        <mxCell id="DlH9ydsDUNCEq7BIyBJi-362" style="edgeStyle=orthogonalEdgeStyle;rounded=0;orthogonalLoop=1;jettySize=auto;html=1;startArrow=oval;startFill=0;strokeColor=#999999;" edge="1" parent="1" source="DlH9ydsDUNCEq7BIyBJi-193">
          <mxGeometry relative="1" as="geometry">
            <mxPoint x="460" y="1041.4285714285713" as="targetPoint" />
            <Array as="points">
              <mxPoint x="461" y="620" />
              <mxPoint x="461" y="1041" />
            </Array>
          </mxGeometry>
        </mxCell>
        <mxCell id="DlH9ydsDUNCEq7BIyBJi-352" style="edgeStyle=orthogonalEdgeStyle;rounded=0;orthogonalLoop=1;jettySize=auto;html=1;endArrow=oval;endFill=0;" edge="1" parent="1" source="DlH9ydsDUNCEq7BIyBJi-291" target="DlH9ydsDUNCEq7BIyBJi-49">
          <mxGeometry relative="1" as="geometry">
            <Array as="points">
              <mxPoint x="510" y="540" />
            </Array>
          </mxGeometry>
        </mxCell>
        <mxCell id="DlH9ydsDUNCEq7BIyBJi-359" style="edgeStyle=orthogonalEdgeStyle;rounded=0;orthogonalLoop=1;jettySize=auto;html=1;endArrow=oval;endFill=0;" edge="1" parent="1" source="DlH9ydsDUNCEq7BIyBJi-306" target="DlH9ydsDUNCEq7BIyBJi-65">
          <mxGeometry relative="1" as="geometry">
            <mxPoint x="500" y="561.4035087719298" as="targetPoint" />
            <Array as="points">
              <mxPoint x="520" y="550" />
            </Array>
          </mxGeometry>
        </mxCell>
        <mxCell id="DlH9ydsDUNCEq7BIyBJi-360" style="edgeStyle=orthogonalEdgeStyle;rounded=0;orthogonalLoop=1;jettySize=auto;html=1;exitX=0.5;exitY=0;exitDx=0;exitDy=0;endArrow=oval;endFill=0;" edge="1" parent="1" source="DlH9ydsDUNCEq7BIyBJi-318" target="DlH9ydsDUNCEq7BIyBJi-81">
          <mxGeometry relative="1" as="geometry">
            <mxPoint x="450" y="560" as="targetPoint" />
            <Array as="points">
              <mxPoint x="530" y="560" />
            </Array>
          </mxGeometry>
        </mxCell>
        <mxCell id="DlH9ydsDUNCEq7BIyBJi-361" style="edgeStyle=orthogonalEdgeStyle;rounded=0;orthogonalLoop=1;jettySize=auto;html=1;endArrow=oval;endFill=0;" edge="1" parent="1" source="DlH9ydsDUNCEq7BIyBJi-331" target="DlH9ydsDUNCEq7BIyBJi-97">
          <mxGeometry relative="1" as="geometry">
            <Array as="points">
              <mxPoint x="540" y="570" />
            </Array>
          </mxGeometry>
        </mxCell>
        <mxCell id="DlH9ydsDUNCEq7BIyBJi-358" style="edgeStyle=orthogonalEdgeStyle;rounded=0;orthogonalLoop=1;jettySize=auto;html=1;endArrow=oval;endFill=0;" edge="1" parent="1" source="DlH9ydsDUNCEq7BIyBJi-329" target="DlH9ydsDUNCEq7BIyBJi-209">
          <mxGeometry relative="1" as="geometry">
            <Array as="points">
              <mxPoint x="450" y="630" />
            </Array>
          </mxGeometry>
        </mxCell>
        <mxCell id="DlH9ydsDUNCEq7BIyBJi-339" style="edgeStyle=orthogonalEdgeStyle;rounded=0;orthogonalLoop=1;jettySize=auto;html=1;entryX=0.5;entryY=0;entryDx=0;entryDy=0;endArrow=oval;endFill=0;startArrow=ERmany;startFill=0;" edge="1" parent="1" source="DlH9ydsDUNCEq7BIyBJi-257" target="DlH9ydsDUNCEq7BIyBJi-294">
          <mxGeometry relative="1" as="geometry">
            <Array as="points">
              <mxPoint x="270" y="680" />
              <mxPoint x="270" y="680" />
            </Array>
          </mxGeometry>
        </mxCell>
        <mxCell id="DlH9ydsDUNCEq7BIyBJi-353" style="edgeStyle=orthogonalEdgeStyle;rounded=0;orthogonalLoop=1;jettySize=auto;html=1;entryX=0.5;entryY=0;entryDx=0;entryDy=0;endArrow=oval;endFill=0;startArrow=ERmany;startFill=0;" edge="1" parent="1" target="DlH9ydsDUNCEq7BIyBJi-309">
          <mxGeometry relative="1" as="geometry">
            <mxPoint x="279.81" y="670" as="sourcePoint" />
            <mxPoint x="279.81" y="743" as="targetPoint" />
            <Array as="points">
              <mxPoint x="280" y="680" />
            </Array>
          </mxGeometry>
        </mxCell>
        <mxCell id="DlH9ydsDUNCEq7BIyBJi-354" style="edgeStyle=orthogonalEdgeStyle;rounded=0;orthogonalLoop=1;jettySize=auto;html=1;entryX=0.5;entryY=0;entryDx=0;entryDy=0;endArrow=oval;endFill=0;startArrow=ERmany;startFill=0;" edge="1" parent="1" target="DlH9ydsDUNCEq7BIyBJi-321">
          <mxGeometry relative="1" as="geometry">
            <mxPoint x="289.81" y="670" as="sourcePoint" />
            <mxPoint x="290" y="813" as="targetPoint" />
            <Array as="points" />
          </mxGeometry>
        </mxCell>
        <mxCell id="DlH9ydsDUNCEq7BIyBJi-355" style="edgeStyle=orthogonalEdgeStyle;rounded=0;orthogonalLoop=1;jettySize=auto;html=1;endArrow=oval;endFill=0;startArrow=ERmany;startFill=0;entryX=0.5;entryY=0;entryDx=0;entryDy=0;" edge="1" parent="1" target="DlH9ydsDUNCEq7BIyBJi-334">
          <mxGeometry relative="1" as="geometry">
            <mxPoint x="299.81" y="670" as="sourcePoint" />
            <mxPoint x="300" y="950" as="targetPoint" />
            <Array as="points" />
          </mxGeometry>
        </mxCell>
        <mxCell id="DlH9ydsDUNCEq7BIyBJi-357" style="edgeStyle=orthogonalEdgeStyle;rounded=0;orthogonalLoop=1;jettySize=auto;html=1;endArrow=oval;endFill=0;startArrow=ERmany;startFill=0;strokeColor=#999999;" edge="1" parent="1">
          <mxGeometry relative="1" as="geometry">
            <mxPoint x="309.66" y="670" as="sourcePoint" />
            <mxPoint x="310" y="1040" as="targetPoint" />
            <Array as="points" />
          </mxGeometry>
        </mxCell>
        <mxCell id="DlH9ydsDUNCEq7BIyBJi-348" style="edgeStyle=orthogonalEdgeStyle;rounded=0;orthogonalLoop=1;jettySize=auto;html=1;entryX=1.001;entryY=0;entryDx=0;entryDy=0;entryPerimeter=0;endArrow=oval;endFill=0;" edge="1" parent="1" source="DlH9ydsDUNCEq7BIyBJi-304" target="DlH9ydsDUNCEq7BIyBJi-241">
          <mxGeometry relative="1" as="geometry">
            <Array as="points">
              <mxPoint x="430" y="650" />
            </Array>
          </mxGeometry>
        </mxCell>
        <mxCell id="DlH9ydsDUNCEq7BIyBJi-343" style="edgeStyle=orthogonalEdgeStyle;rounded=0;orthogonalLoop=1;jettySize=auto;html=1;endArrow=oval;endFill=0;entryX=0.998;entryY=0.02;entryDx=0;entryDy=0;entryPerimeter=0;" edge="1" parent="1" source="DlH9ydsDUNCEq7BIyBJi-289" target="DlH9ydsDUNCEq7BIyBJi-257">
          <mxGeometry relative="1" as="geometry">
            <mxPoint x="390" y="660" as="targetPoint" />
            <Array as="points">
              <mxPoint x="420" y="660" />
            </Array>
          </mxGeometry>
        </mxCell>
        <mxCell id="DlH9ydsDUNCEq7BIyBJi-337" style="edgeStyle=orthogonalEdgeStyle;rounded=0;orthogonalLoop=1;jettySize=auto;html=1;exitX=0.5;exitY=0;exitDx=0;exitDy=0;endArrow=oval;endFill=0;" edge="1" parent="1" source="DlH9ydsDUNCEq7BIyBJi-316" target="DlH9ydsDUNCEq7BIyBJi-225">
          <mxGeometry relative="1" as="geometry">
            <Array as="points">
              <mxPoint x="440" y="640" />
            </Array>
          </mxGeometry>
        </mxCell>
        <mxCell id="DlH9ydsDUNCEq7BIyBJi-2" style="edgeStyle=orthogonalEdgeStyle;rounded=0;orthogonalLoop=1;jettySize=auto;html=1;entryX=0;entryY=0.5;entryDx=0;entryDy=0;endArrow=none;startFill=0;" edge="1" parent="1" source="DlH9ydsDUNCEq7BIyBJi-1" target="DlH9ydsDUNCEq7BIyBJi-277">
          <mxGeometry relative="1" as="geometry">
            <mxPoint x="200" y="440" as="targetPoint" />
          </mxGeometry>
        </mxCell>
        <mxCell id="DlH9ydsDUNCEq7BIyBJi-1" value="&lt;font style=&quot;font-size: 30px;&quot;&gt;S&lt;sub&gt;i&lt;/sub&gt;&lt;/font&gt;" style="ellipse;whiteSpace=wrap;html=1;aspect=fixed;strokeWidth=2;" vertex="1" parent="1">
          <mxGeometry x="80" y="400" width="80" height="80" as="geometry" />
        </mxCell>
        <mxCell id="DlH9ydsDUNCEq7BIyBJi-4" style="edgeStyle=orthogonalEdgeStyle;rounded=0;orthogonalLoop=1;jettySize=auto;html=1;" edge="1" parent="1" source="DlH9ydsDUNCEq7BIyBJi-3" target="DlH9ydsDUNCEq7BIyBJi-6">
          <mxGeometry relative="1" as="geometry">
            <mxPoint x="360" y="440" as="targetPoint" />
          </mxGeometry>
        </mxCell>
        <mxCell id="DlH9ydsDUNCEq7BIyBJi-3" value="E&lt;sub&gt;i&lt;/sub&gt;" style="ellipse;whiteSpace=wrap;html=1;fontSize=30;strokeWidth=2;" vertex="1" parent="1">
          <mxGeometry x="240" y="400" width="80" height="80" as="geometry" />
        </mxCell>
        <mxCell id="DlH9ydsDUNCEq7BIyBJi-10" style="edgeStyle=orthogonalEdgeStyle;rounded=0;orthogonalLoop=1;jettySize=auto;html=1;entryX=0;entryY=0.5;entryDx=0;entryDy=0;" edge="1" parent="1" source="DlH9ydsDUNCEq7BIyBJi-6" target="DlH9ydsDUNCEq7BIyBJi-9">
          <mxGeometry relative="1" as="geometry" />
        </mxCell>
        <mxCell id="DlH9ydsDUNCEq7BIyBJi-349" style="edgeStyle=orthogonalEdgeStyle;rounded=0;orthogonalLoop=1;jettySize=auto;html=1;endArrow=oval;endFill=0;" edge="1" parent="1" source="DlH9ydsDUNCEq7BIyBJi-6" target="DlH9ydsDUNCEq7BIyBJi-177">
          <mxGeometry relative="1" as="geometry">
            <Array as="points">
              <mxPoint x="400" y="610" />
            </Array>
          </mxGeometry>
        </mxCell>
        <mxCell id="DlH9ydsDUNCEq7BIyBJi-6" value="A&lt;sub&gt;i&lt;/sub&gt;" style="ellipse;whiteSpace=wrap;html=1;fontSize=30;strokeWidth=2;" vertex="1" parent="1">
          <mxGeometry x="360" y="400" width="80" height="80" as="geometry" />
        </mxCell>
        <mxCell id="DlH9ydsDUNCEq7BIyBJi-12" style="edgeStyle=orthogonalEdgeStyle;rounded=0;orthogonalLoop=1;jettySize=auto;html=1;entryX=0;entryY=0.5;entryDx=0;entryDy=0;" edge="1" parent="1" source="DlH9ydsDUNCEq7BIyBJi-9" target="DlH9ydsDUNCEq7BIyBJi-11">
          <mxGeometry relative="1" as="geometry" />
        </mxCell>
        <mxCell id="DlH9ydsDUNCEq7BIyBJi-350" style="edgeStyle=orthogonalEdgeStyle;rounded=0;orthogonalLoop=1;jettySize=auto;html=1;endArrow=oval;endFill=0;" edge="1" parent="1" source="DlH9ydsDUNCEq7BIyBJi-9" target="DlH9ydsDUNCEq7BIyBJi-33">
          <mxGeometry relative="1" as="geometry">
            <Array as="points">
              <mxPoint x="520" y="530" />
            </Array>
          </mxGeometry>
        </mxCell>
        <mxCell id="DlH9ydsDUNCEq7BIyBJi-9" value="I&lt;sub&gt;i&lt;/sub&gt;" style="ellipse;whiteSpace=wrap;html=1;fontSize=30;strokeWidth=2;" vertex="1" parent="1">
          <mxGeometry x="480" y="400" width="80" height="80" as="geometry" />
        </mxCell>
        <mxCell id="DlH9ydsDUNCEq7BIyBJi-11" value="R&lt;sub&gt;i&lt;/sub&gt;" style="ellipse;whiteSpace=wrap;html=1;fontSize=30;strokeWidth=2;" vertex="1" parent="1">
          <mxGeometry x="600" y="400" width="80" height="80" as="geometry" />
        </mxCell>
        <mxCell id="DlH9ydsDUNCEq7BIyBJi-32" value="" style="shape=table;startSize=0;container=1;collapsible=0;childLayout=tableLayout;" vertex="1" parent="1">
          <mxGeometry x="235" y="520" width="150" height="150" as="geometry" />
        </mxCell>
        <mxCell id="DlH9ydsDUNCEq7BIyBJi-33" value="" style="shape=tableRow;horizontal=0;startSize=0;swimlaneHead=0;swimlaneBody=0;strokeColor=inherit;top=0;left=0;bottom=0;right=0;collapsible=0;dropTarget=0;fillColor=none;points=[[0,0.5],[1,0.5]];portConstraint=eastwest;" vertex="1" parent="DlH9ydsDUNCEq7BIyBJi-32">
          <mxGeometry width="150" height="10" as="geometry" />
        </mxCell>
        <mxCell id="DlH9ydsDUNCEq7BIyBJi-34" value="" style="shape=partialRectangle;html=1;whiteSpace=wrap;connectable=0;strokeColor=inherit;overflow=hidden;fillColor=none;top=0;left=0;bottom=0;right=0;pointerEvents=1;" vertex="1" parent="DlH9ydsDUNCEq7BIyBJi-33">
          <mxGeometry width="10" height="10" as="geometry">
            <mxRectangle width="10" height="10" as="alternateBounds" />
          </mxGeometry>
        </mxCell>
        <mxCell id="DlH9ydsDUNCEq7BIyBJi-35" value="" style="shape=partialRectangle;html=1;whiteSpace=wrap;connectable=0;strokeColor=inherit;overflow=hidden;fillColor=none;top=0;left=0;bottom=0;right=0;pointerEvents=1;" vertex="1" parent="DlH9ydsDUNCEq7BIyBJi-33">
          <mxGeometry x="10" width="10" height="10" as="geometry">
            <mxRectangle width="10" height="10" as="alternateBounds" />
          </mxGeometry>
        </mxCell>
        <mxCell id="DlH9ydsDUNCEq7BIyBJi-36" value="" style="shape=partialRectangle;html=1;whiteSpace=wrap;connectable=0;strokeColor=inherit;overflow=hidden;fillColor=none;top=0;left=0;bottom=0;right=0;pointerEvents=1;" vertex="1" parent="DlH9ydsDUNCEq7BIyBJi-33">
          <mxGeometry x="20" width="10" height="10" as="geometry">
            <mxRectangle width="10" height="10" as="alternateBounds" />
          </mxGeometry>
        </mxCell>
        <mxCell id="DlH9ydsDUNCEq7BIyBJi-37" value="" style="shape=partialRectangle;html=1;whiteSpace=wrap;connectable=0;strokeColor=inherit;overflow=hidden;fillColor=none;top=0;left=0;bottom=0;right=0;pointerEvents=1;" vertex="1" parent="DlH9ydsDUNCEq7BIyBJi-33">
          <mxGeometry x="30" width="10" height="10" as="geometry">
            <mxRectangle width="10" height="10" as="alternateBounds" />
          </mxGeometry>
        </mxCell>
        <mxCell id="DlH9ydsDUNCEq7BIyBJi-38" value="" style="shape=partialRectangle;html=1;whiteSpace=wrap;connectable=0;strokeColor=inherit;overflow=hidden;fillColor=none;top=0;left=0;bottom=0;right=0;pointerEvents=1;" vertex="1" parent="DlH9ydsDUNCEq7BIyBJi-33">
          <mxGeometry x="40" width="10" height="10" as="geometry">
            <mxRectangle width="10" height="10" as="alternateBounds" />
          </mxGeometry>
        </mxCell>
        <mxCell id="DlH9ydsDUNCEq7BIyBJi-39" value="" style="shape=partialRectangle;html=1;whiteSpace=wrap;connectable=0;strokeColor=inherit;overflow=hidden;fillColor=none;top=0;left=0;bottom=0;right=0;pointerEvents=1;" vertex="1" parent="DlH9ydsDUNCEq7BIyBJi-33">
          <mxGeometry x="50" width="10" height="10" as="geometry">
            <mxRectangle width="10" height="10" as="alternateBounds" />
          </mxGeometry>
        </mxCell>
        <mxCell id="DlH9ydsDUNCEq7BIyBJi-40" value="" style="shape=partialRectangle;html=1;whiteSpace=wrap;connectable=0;strokeColor=inherit;overflow=hidden;fillColor=none;top=0;left=0;bottom=0;right=0;pointerEvents=1;" vertex="1" parent="DlH9ydsDUNCEq7BIyBJi-33">
          <mxGeometry x="60" width="10" height="10" as="geometry">
            <mxRectangle width="10" height="10" as="alternateBounds" />
          </mxGeometry>
        </mxCell>
        <mxCell id="DlH9ydsDUNCEq7BIyBJi-41" value="" style="shape=partialRectangle;html=1;whiteSpace=wrap;connectable=0;strokeColor=inherit;overflow=hidden;fillColor=none;top=0;left=0;bottom=0;right=0;pointerEvents=1;" vertex="1" parent="DlH9ydsDUNCEq7BIyBJi-33">
          <mxGeometry x="70" width="10" height="10" as="geometry">
            <mxRectangle width="10" height="10" as="alternateBounds" />
          </mxGeometry>
        </mxCell>
        <mxCell id="DlH9ydsDUNCEq7BIyBJi-42" value="" style="shape=partialRectangle;html=1;whiteSpace=wrap;connectable=0;strokeColor=inherit;overflow=hidden;fillColor=none;top=0;left=0;bottom=0;right=0;pointerEvents=1;" vertex="1" parent="DlH9ydsDUNCEq7BIyBJi-33">
          <mxGeometry x="80" width="10" height="10" as="geometry">
            <mxRectangle width="10" height="10" as="alternateBounds" />
          </mxGeometry>
        </mxCell>
        <mxCell id="DlH9ydsDUNCEq7BIyBJi-43" value="" style="shape=partialRectangle;html=1;whiteSpace=wrap;connectable=0;strokeColor=inherit;overflow=hidden;fillColor=none;top=0;left=0;bottom=0;right=0;pointerEvents=1;" vertex="1" parent="DlH9ydsDUNCEq7BIyBJi-33">
          <mxGeometry x="90" width="10" height="10" as="geometry">
            <mxRectangle width="10" height="10" as="alternateBounds" />
          </mxGeometry>
        </mxCell>
        <mxCell id="DlH9ydsDUNCEq7BIyBJi-44" value="" style="shape=partialRectangle;html=1;whiteSpace=wrap;connectable=0;strokeColor=inherit;overflow=hidden;fillColor=none;top=0;left=0;bottom=0;right=0;pointerEvents=1;" vertex="1" parent="DlH9ydsDUNCEq7BIyBJi-33">
          <mxGeometry x="100" width="10" height="10" as="geometry">
            <mxRectangle width="10" height="10" as="alternateBounds" />
          </mxGeometry>
        </mxCell>
        <mxCell id="DlH9ydsDUNCEq7BIyBJi-45" value="" style="shape=partialRectangle;html=1;whiteSpace=wrap;connectable=0;strokeColor=inherit;overflow=hidden;fillColor=none;top=0;left=0;bottom=0;right=0;pointerEvents=1;" vertex="1" parent="DlH9ydsDUNCEq7BIyBJi-33">
          <mxGeometry x="110" width="10" height="10" as="geometry">
            <mxRectangle width="10" height="10" as="alternateBounds" />
          </mxGeometry>
        </mxCell>
        <mxCell id="DlH9ydsDUNCEq7BIyBJi-46" value="" style="shape=partialRectangle;html=1;whiteSpace=wrap;connectable=0;strokeColor=inherit;overflow=hidden;fillColor=none;top=0;left=0;bottom=0;right=0;pointerEvents=1;" vertex="1" parent="DlH9ydsDUNCEq7BIyBJi-33">
          <mxGeometry x="120" width="10" height="10" as="geometry">
            <mxRectangle width="10" height="10" as="alternateBounds" />
          </mxGeometry>
        </mxCell>
        <mxCell id="DlH9ydsDUNCEq7BIyBJi-47" value="" style="shape=partialRectangle;html=1;whiteSpace=wrap;connectable=0;strokeColor=inherit;overflow=hidden;fillColor=none;top=0;left=0;bottom=0;right=0;pointerEvents=1;" vertex="1" parent="DlH9ydsDUNCEq7BIyBJi-33">
          <mxGeometry x="130" width="10" height="10" as="geometry">
            <mxRectangle width="10" height="10" as="alternateBounds" />
          </mxGeometry>
        </mxCell>
        <mxCell id="DlH9ydsDUNCEq7BIyBJi-48" value="" style="shape=partialRectangle;html=1;whiteSpace=wrap;connectable=0;strokeColor=inherit;overflow=hidden;fillColor=none;top=0;left=0;bottom=0;right=0;pointerEvents=1;" vertex="1" parent="DlH9ydsDUNCEq7BIyBJi-33">
          <mxGeometry x="140" width="10" height="10" as="geometry">
            <mxRectangle width="10" height="10" as="alternateBounds" />
          </mxGeometry>
        </mxCell>
        <mxCell id="DlH9ydsDUNCEq7BIyBJi-49" value="" style="shape=tableRow;horizontal=0;startSize=0;swimlaneHead=0;swimlaneBody=0;strokeColor=inherit;top=0;left=0;bottom=0;right=0;collapsible=0;dropTarget=0;fillColor=none;points=[[0,0.5],[1,0.5]];portConstraint=eastwest;" vertex="1" parent="DlH9ydsDUNCEq7BIyBJi-32">
          <mxGeometry y="10" width="150" height="10" as="geometry" />
        </mxCell>
        <mxCell id="DlH9ydsDUNCEq7BIyBJi-50" value="" style="shape=partialRectangle;html=1;whiteSpace=wrap;connectable=0;strokeColor=inherit;overflow=hidden;fillColor=none;top=0;left=0;bottom=0;right=0;pointerEvents=1;" vertex="1" parent="DlH9ydsDUNCEq7BIyBJi-49">
          <mxGeometry width="10" height="10" as="geometry">
            <mxRectangle width="10" height="10" as="alternateBounds" />
          </mxGeometry>
        </mxCell>
        <mxCell id="DlH9ydsDUNCEq7BIyBJi-51" value="" style="shape=partialRectangle;html=1;whiteSpace=wrap;connectable=0;strokeColor=inherit;overflow=hidden;fillColor=none;top=0;left=0;bottom=0;right=0;pointerEvents=1;" vertex="1" parent="DlH9ydsDUNCEq7BIyBJi-49">
          <mxGeometry x="10" width="10" height="10" as="geometry">
            <mxRectangle width="10" height="10" as="alternateBounds" />
          </mxGeometry>
        </mxCell>
        <mxCell id="DlH9ydsDUNCEq7BIyBJi-52" value="" style="shape=partialRectangle;html=1;whiteSpace=wrap;connectable=0;strokeColor=inherit;overflow=hidden;fillColor=none;top=0;left=0;bottom=0;right=0;pointerEvents=1;" vertex="1" parent="DlH9ydsDUNCEq7BIyBJi-49">
          <mxGeometry x="20" width="10" height="10" as="geometry">
            <mxRectangle width="10" height="10" as="alternateBounds" />
          </mxGeometry>
        </mxCell>
        <mxCell id="DlH9ydsDUNCEq7BIyBJi-53" value="" style="shape=partialRectangle;html=1;whiteSpace=wrap;connectable=0;strokeColor=inherit;overflow=hidden;fillColor=none;top=0;left=0;bottom=0;right=0;pointerEvents=1;" vertex="1" parent="DlH9ydsDUNCEq7BIyBJi-49">
          <mxGeometry x="30" width="10" height="10" as="geometry">
            <mxRectangle width="10" height="10" as="alternateBounds" />
          </mxGeometry>
        </mxCell>
        <mxCell id="DlH9ydsDUNCEq7BIyBJi-54" value="" style="shape=partialRectangle;html=1;whiteSpace=wrap;connectable=0;strokeColor=inherit;overflow=hidden;fillColor=none;top=0;left=0;bottom=0;right=0;pointerEvents=1;" vertex="1" parent="DlH9ydsDUNCEq7BIyBJi-49">
          <mxGeometry x="40" width="10" height="10" as="geometry">
            <mxRectangle width="10" height="10" as="alternateBounds" />
          </mxGeometry>
        </mxCell>
        <mxCell id="DlH9ydsDUNCEq7BIyBJi-55" value="" style="shape=partialRectangle;html=1;whiteSpace=wrap;connectable=0;strokeColor=inherit;overflow=hidden;fillColor=none;top=0;left=0;bottom=0;right=0;pointerEvents=1;" vertex="1" parent="DlH9ydsDUNCEq7BIyBJi-49">
          <mxGeometry x="50" width="10" height="10" as="geometry">
            <mxRectangle width="10" height="10" as="alternateBounds" />
          </mxGeometry>
        </mxCell>
        <mxCell id="DlH9ydsDUNCEq7BIyBJi-56" value="" style="shape=partialRectangle;html=1;whiteSpace=wrap;connectable=0;strokeColor=inherit;overflow=hidden;fillColor=none;top=0;left=0;bottom=0;right=0;pointerEvents=1;" vertex="1" parent="DlH9ydsDUNCEq7BIyBJi-49">
          <mxGeometry x="60" width="10" height="10" as="geometry">
            <mxRectangle width="10" height="10" as="alternateBounds" />
          </mxGeometry>
        </mxCell>
        <mxCell id="DlH9ydsDUNCEq7BIyBJi-57" value="" style="shape=partialRectangle;html=1;whiteSpace=wrap;connectable=0;strokeColor=inherit;overflow=hidden;fillColor=none;top=0;left=0;bottom=0;right=0;pointerEvents=1;" vertex="1" parent="DlH9ydsDUNCEq7BIyBJi-49">
          <mxGeometry x="70" width="10" height="10" as="geometry">
            <mxRectangle width="10" height="10" as="alternateBounds" />
          </mxGeometry>
        </mxCell>
        <mxCell id="DlH9ydsDUNCEq7BIyBJi-58" value="" style="shape=partialRectangle;html=1;whiteSpace=wrap;connectable=0;strokeColor=inherit;overflow=hidden;fillColor=none;top=0;left=0;bottom=0;right=0;pointerEvents=1;" vertex="1" parent="DlH9ydsDUNCEq7BIyBJi-49">
          <mxGeometry x="80" width="10" height="10" as="geometry">
            <mxRectangle width="10" height="10" as="alternateBounds" />
          </mxGeometry>
        </mxCell>
        <mxCell id="DlH9ydsDUNCEq7BIyBJi-59" value="" style="shape=partialRectangle;html=1;whiteSpace=wrap;connectable=0;strokeColor=inherit;overflow=hidden;fillColor=none;top=0;left=0;bottom=0;right=0;pointerEvents=1;" vertex="1" parent="DlH9ydsDUNCEq7BIyBJi-49">
          <mxGeometry x="90" width="10" height="10" as="geometry">
            <mxRectangle width="10" height="10" as="alternateBounds" />
          </mxGeometry>
        </mxCell>
        <mxCell id="DlH9ydsDUNCEq7BIyBJi-60" value="" style="shape=partialRectangle;html=1;whiteSpace=wrap;connectable=0;strokeColor=inherit;overflow=hidden;fillColor=none;top=0;left=0;bottom=0;right=0;pointerEvents=1;" vertex="1" parent="DlH9ydsDUNCEq7BIyBJi-49">
          <mxGeometry x="100" width="10" height="10" as="geometry">
            <mxRectangle width="10" height="10" as="alternateBounds" />
          </mxGeometry>
        </mxCell>
        <mxCell id="DlH9ydsDUNCEq7BIyBJi-61" value="" style="shape=partialRectangle;html=1;whiteSpace=wrap;connectable=0;strokeColor=inherit;overflow=hidden;fillColor=none;top=0;left=0;bottom=0;right=0;pointerEvents=1;" vertex="1" parent="DlH9ydsDUNCEq7BIyBJi-49">
          <mxGeometry x="110" width="10" height="10" as="geometry">
            <mxRectangle width="10" height="10" as="alternateBounds" />
          </mxGeometry>
        </mxCell>
        <mxCell id="DlH9ydsDUNCEq7BIyBJi-62" value="" style="shape=partialRectangle;html=1;whiteSpace=wrap;connectable=0;strokeColor=inherit;overflow=hidden;fillColor=none;top=0;left=0;bottom=0;right=0;pointerEvents=1;" vertex="1" parent="DlH9ydsDUNCEq7BIyBJi-49">
          <mxGeometry x="120" width="10" height="10" as="geometry">
            <mxRectangle width="10" height="10" as="alternateBounds" />
          </mxGeometry>
        </mxCell>
        <mxCell id="DlH9ydsDUNCEq7BIyBJi-63" value="" style="shape=partialRectangle;html=1;whiteSpace=wrap;connectable=0;strokeColor=inherit;overflow=hidden;fillColor=none;top=0;left=0;bottom=0;right=0;pointerEvents=1;" vertex="1" parent="DlH9ydsDUNCEq7BIyBJi-49">
          <mxGeometry x="130" width="10" height="10" as="geometry">
            <mxRectangle width="10" height="10" as="alternateBounds" />
          </mxGeometry>
        </mxCell>
        <mxCell id="DlH9ydsDUNCEq7BIyBJi-64" value="" style="shape=partialRectangle;html=1;whiteSpace=wrap;connectable=0;strokeColor=inherit;overflow=hidden;fillColor=none;top=0;left=0;bottom=0;right=0;pointerEvents=1;" vertex="1" parent="DlH9ydsDUNCEq7BIyBJi-49">
          <mxGeometry x="140" width="10" height="10" as="geometry">
            <mxRectangle width="10" height="10" as="alternateBounds" />
          </mxGeometry>
        </mxCell>
        <mxCell id="DlH9ydsDUNCEq7BIyBJi-65" value="" style="shape=tableRow;horizontal=0;startSize=0;swimlaneHead=0;swimlaneBody=0;strokeColor=inherit;top=0;left=0;bottom=0;right=0;collapsible=0;dropTarget=0;fillColor=none;points=[[0,0.5],[1,0.5]];portConstraint=eastwest;" vertex="1" parent="DlH9ydsDUNCEq7BIyBJi-32">
          <mxGeometry y="20" width="150" height="10" as="geometry" />
        </mxCell>
        <mxCell id="DlH9ydsDUNCEq7BIyBJi-66" value="" style="shape=partialRectangle;html=1;whiteSpace=wrap;connectable=0;strokeColor=inherit;overflow=hidden;fillColor=none;top=0;left=0;bottom=0;right=0;pointerEvents=1;" vertex="1" parent="DlH9ydsDUNCEq7BIyBJi-65">
          <mxGeometry width="10" height="10" as="geometry">
            <mxRectangle width="10" height="10" as="alternateBounds" />
          </mxGeometry>
        </mxCell>
        <mxCell id="DlH9ydsDUNCEq7BIyBJi-67" value="" style="shape=partialRectangle;html=1;whiteSpace=wrap;connectable=0;strokeColor=inherit;overflow=hidden;fillColor=none;top=0;left=0;bottom=0;right=0;pointerEvents=1;" vertex="1" parent="DlH9ydsDUNCEq7BIyBJi-65">
          <mxGeometry x="10" width="10" height="10" as="geometry">
            <mxRectangle width="10" height="10" as="alternateBounds" />
          </mxGeometry>
        </mxCell>
        <mxCell id="DlH9ydsDUNCEq7BIyBJi-68" value="" style="shape=partialRectangle;html=1;whiteSpace=wrap;connectable=0;strokeColor=inherit;overflow=hidden;fillColor=none;top=0;left=0;bottom=0;right=0;pointerEvents=1;" vertex="1" parent="DlH9ydsDUNCEq7BIyBJi-65">
          <mxGeometry x="20" width="10" height="10" as="geometry">
            <mxRectangle width="10" height="10" as="alternateBounds" />
          </mxGeometry>
        </mxCell>
        <mxCell id="DlH9ydsDUNCEq7BIyBJi-69" value="" style="shape=partialRectangle;html=1;whiteSpace=wrap;connectable=0;strokeColor=inherit;overflow=hidden;fillColor=none;top=0;left=0;bottom=0;right=0;pointerEvents=1;" vertex="1" parent="DlH9ydsDUNCEq7BIyBJi-65">
          <mxGeometry x="30" width="10" height="10" as="geometry">
            <mxRectangle width="10" height="10" as="alternateBounds" />
          </mxGeometry>
        </mxCell>
        <mxCell id="DlH9ydsDUNCEq7BIyBJi-70" value="" style="shape=partialRectangle;html=1;whiteSpace=wrap;connectable=0;strokeColor=inherit;overflow=hidden;fillColor=none;top=0;left=0;bottom=0;right=0;pointerEvents=1;" vertex="1" parent="DlH9ydsDUNCEq7BIyBJi-65">
          <mxGeometry x="40" width="10" height="10" as="geometry">
            <mxRectangle width="10" height="10" as="alternateBounds" />
          </mxGeometry>
        </mxCell>
        <mxCell id="DlH9ydsDUNCEq7BIyBJi-71" value="" style="shape=partialRectangle;html=1;whiteSpace=wrap;connectable=0;strokeColor=inherit;overflow=hidden;fillColor=none;top=0;left=0;bottom=0;right=0;pointerEvents=1;" vertex="1" parent="DlH9ydsDUNCEq7BIyBJi-65">
          <mxGeometry x="50" width="10" height="10" as="geometry">
            <mxRectangle width="10" height="10" as="alternateBounds" />
          </mxGeometry>
        </mxCell>
        <mxCell id="DlH9ydsDUNCEq7BIyBJi-72" value="" style="shape=partialRectangle;html=1;whiteSpace=wrap;connectable=0;strokeColor=inherit;overflow=hidden;fillColor=none;top=0;left=0;bottom=0;right=0;pointerEvents=1;" vertex="1" parent="DlH9ydsDUNCEq7BIyBJi-65">
          <mxGeometry x="60" width="10" height="10" as="geometry">
            <mxRectangle width="10" height="10" as="alternateBounds" />
          </mxGeometry>
        </mxCell>
        <mxCell id="DlH9ydsDUNCEq7BIyBJi-73" value="" style="shape=partialRectangle;html=1;whiteSpace=wrap;connectable=0;strokeColor=inherit;overflow=hidden;fillColor=none;top=0;left=0;bottom=0;right=0;pointerEvents=1;" vertex="1" parent="DlH9ydsDUNCEq7BIyBJi-65">
          <mxGeometry x="70" width="10" height="10" as="geometry">
            <mxRectangle width="10" height="10" as="alternateBounds" />
          </mxGeometry>
        </mxCell>
        <mxCell id="DlH9ydsDUNCEq7BIyBJi-74" value="" style="shape=partialRectangle;html=1;whiteSpace=wrap;connectable=0;strokeColor=inherit;overflow=hidden;fillColor=none;top=0;left=0;bottom=0;right=0;pointerEvents=1;" vertex="1" parent="DlH9ydsDUNCEq7BIyBJi-65">
          <mxGeometry x="80" width="10" height="10" as="geometry">
            <mxRectangle width="10" height="10" as="alternateBounds" />
          </mxGeometry>
        </mxCell>
        <mxCell id="DlH9ydsDUNCEq7BIyBJi-75" value="" style="shape=partialRectangle;html=1;whiteSpace=wrap;connectable=0;strokeColor=inherit;overflow=hidden;fillColor=none;top=0;left=0;bottom=0;right=0;pointerEvents=1;" vertex="1" parent="DlH9ydsDUNCEq7BIyBJi-65">
          <mxGeometry x="90" width="10" height="10" as="geometry">
            <mxRectangle width="10" height="10" as="alternateBounds" />
          </mxGeometry>
        </mxCell>
        <mxCell id="DlH9ydsDUNCEq7BIyBJi-76" value="" style="shape=partialRectangle;html=1;whiteSpace=wrap;connectable=0;strokeColor=inherit;overflow=hidden;fillColor=none;top=0;left=0;bottom=0;right=0;pointerEvents=1;" vertex="1" parent="DlH9ydsDUNCEq7BIyBJi-65">
          <mxGeometry x="100" width="10" height="10" as="geometry">
            <mxRectangle width="10" height="10" as="alternateBounds" />
          </mxGeometry>
        </mxCell>
        <mxCell id="DlH9ydsDUNCEq7BIyBJi-77" value="" style="shape=partialRectangle;html=1;whiteSpace=wrap;connectable=0;strokeColor=inherit;overflow=hidden;fillColor=none;top=0;left=0;bottom=0;right=0;pointerEvents=1;" vertex="1" parent="DlH9ydsDUNCEq7BIyBJi-65">
          <mxGeometry x="110" width="10" height="10" as="geometry">
            <mxRectangle width="10" height="10" as="alternateBounds" />
          </mxGeometry>
        </mxCell>
        <mxCell id="DlH9ydsDUNCEq7BIyBJi-78" value="" style="shape=partialRectangle;html=1;whiteSpace=wrap;connectable=0;strokeColor=inherit;overflow=hidden;fillColor=none;top=0;left=0;bottom=0;right=0;pointerEvents=1;" vertex="1" parent="DlH9ydsDUNCEq7BIyBJi-65">
          <mxGeometry x="120" width="10" height="10" as="geometry">
            <mxRectangle width="10" height="10" as="alternateBounds" />
          </mxGeometry>
        </mxCell>
        <mxCell id="DlH9ydsDUNCEq7BIyBJi-79" value="" style="shape=partialRectangle;html=1;whiteSpace=wrap;connectable=0;strokeColor=inherit;overflow=hidden;fillColor=none;top=0;left=0;bottom=0;right=0;pointerEvents=1;" vertex="1" parent="DlH9ydsDUNCEq7BIyBJi-65">
          <mxGeometry x="130" width="10" height="10" as="geometry">
            <mxRectangle width="10" height="10" as="alternateBounds" />
          </mxGeometry>
        </mxCell>
        <mxCell id="DlH9ydsDUNCEq7BIyBJi-80" value="" style="shape=partialRectangle;html=1;whiteSpace=wrap;connectable=0;strokeColor=inherit;overflow=hidden;fillColor=none;top=0;left=0;bottom=0;right=0;pointerEvents=1;" vertex="1" parent="DlH9ydsDUNCEq7BIyBJi-65">
          <mxGeometry x="140" width="10" height="10" as="geometry">
            <mxRectangle width="10" height="10" as="alternateBounds" />
          </mxGeometry>
        </mxCell>
        <mxCell id="DlH9ydsDUNCEq7BIyBJi-81" value="" style="shape=tableRow;horizontal=0;startSize=0;swimlaneHead=0;swimlaneBody=0;strokeColor=inherit;top=0;left=0;bottom=0;right=0;collapsible=0;dropTarget=0;fillColor=none;points=[[0,0.5],[1,0.5]];portConstraint=eastwest;" vertex="1" parent="DlH9ydsDUNCEq7BIyBJi-32">
          <mxGeometry y="30" width="150" height="10" as="geometry" />
        </mxCell>
        <mxCell id="DlH9ydsDUNCEq7BIyBJi-82" value="" style="shape=partialRectangle;html=1;whiteSpace=wrap;connectable=0;strokeColor=inherit;overflow=hidden;fillColor=none;top=0;left=0;bottom=0;right=0;pointerEvents=1;" vertex="1" parent="DlH9ydsDUNCEq7BIyBJi-81">
          <mxGeometry width="10" height="10" as="geometry">
            <mxRectangle width="10" height="10" as="alternateBounds" />
          </mxGeometry>
        </mxCell>
        <mxCell id="DlH9ydsDUNCEq7BIyBJi-83" value="" style="shape=partialRectangle;html=1;whiteSpace=wrap;connectable=0;strokeColor=inherit;overflow=hidden;fillColor=none;top=0;left=0;bottom=0;right=0;pointerEvents=1;" vertex="1" parent="DlH9ydsDUNCEq7BIyBJi-81">
          <mxGeometry x="10" width="10" height="10" as="geometry">
            <mxRectangle width="10" height="10" as="alternateBounds" />
          </mxGeometry>
        </mxCell>
        <mxCell id="DlH9ydsDUNCEq7BIyBJi-84" value="" style="shape=partialRectangle;html=1;whiteSpace=wrap;connectable=0;strokeColor=inherit;overflow=hidden;fillColor=none;top=0;left=0;bottom=0;right=0;pointerEvents=1;" vertex="1" parent="DlH9ydsDUNCEq7BIyBJi-81">
          <mxGeometry x="20" width="10" height="10" as="geometry">
            <mxRectangle width="10" height="10" as="alternateBounds" />
          </mxGeometry>
        </mxCell>
        <mxCell id="DlH9ydsDUNCEq7BIyBJi-85" value="" style="shape=partialRectangle;html=1;whiteSpace=wrap;connectable=0;strokeColor=inherit;overflow=hidden;fillColor=none;top=0;left=0;bottom=0;right=0;pointerEvents=1;" vertex="1" parent="DlH9ydsDUNCEq7BIyBJi-81">
          <mxGeometry x="30" width="10" height="10" as="geometry">
            <mxRectangle width="10" height="10" as="alternateBounds" />
          </mxGeometry>
        </mxCell>
        <mxCell id="DlH9ydsDUNCEq7BIyBJi-86" value="" style="shape=partialRectangle;html=1;whiteSpace=wrap;connectable=0;strokeColor=inherit;overflow=hidden;fillColor=none;top=0;left=0;bottom=0;right=0;pointerEvents=1;" vertex="1" parent="DlH9ydsDUNCEq7BIyBJi-81">
          <mxGeometry x="40" width="10" height="10" as="geometry">
            <mxRectangle width="10" height="10" as="alternateBounds" />
          </mxGeometry>
        </mxCell>
        <mxCell id="DlH9ydsDUNCEq7BIyBJi-87" value="" style="shape=partialRectangle;html=1;whiteSpace=wrap;connectable=0;strokeColor=inherit;overflow=hidden;fillColor=none;top=0;left=0;bottom=0;right=0;pointerEvents=1;" vertex="1" parent="DlH9ydsDUNCEq7BIyBJi-81">
          <mxGeometry x="50" width="10" height="10" as="geometry">
            <mxRectangle width="10" height="10" as="alternateBounds" />
          </mxGeometry>
        </mxCell>
        <mxCell id="DlH9ydsDUNCEq7BIyBJi-88" value="" style="shape=partialRectangle;html=1;whiteSpace=wrap;connectable=0;strokeColor=inherit;overflow=hidden;fillColor=none;top=0;left=0;bottom=0;right=0;pointerEvents=1;" vertex="1" parent="DlH9ydsDUNCEq7BIyBJi-81">
          <mxGeometry x="60" width="10" height="10" as="geometry">
            <mxRectangle width="10" height="10" as="alternateBounds" />
          </mxGeometry>
        </mxCell>
        <mxCell id="DlH9ydsDUNCEq7BIyBJi-89" value="" style="shape=partialRectangle;html=1;whiteSpace=wrap;connectable=0;strokeColor=inherit;overflow=hidden;fillColor=none;top=0;left=0;bottom=0;right=0;pointerEvents=1;" vertex="1" parent="DlH9ydsDUNCEq7BIyBJi-81">
          <mxGeometry x="70" width="10" height="10" as="geometry">
            <mxRectangle width="10" height="10" as="alternateBounds" />
          </mxGeometry>
        </mxCell>
        <mxCell id="DlH9ydsDUNCEq7BIyBJi-90" value="" style="shape=partialRectangle;html=1;whiteSpace=wrap;connectable=0;strokeColor=inherit;overflow=hidden;fillColor=none;top=0;left=0;bottom=0;right=0;pointerEvents=1;" vertex="1" parent="DlH9ydsDUNCEq7BIyBJi-81">
          <mxGeometry x="80" width="10" height="10" as="geometry">
            <mxRectangle width="10" height="10" as="alternateBounds" />
          </mxGeometry>
        </mxCell>
        <mxCell id="DlH9ydsDUNCEq7BIyBJi-91" value="" style="shape=partialRectangle;html=1;whiteSpace=wrap;connectable=0;strokeColor=inherit;overflow=hidden;fillColor=none;top=0;left=0;bottom=0;right=0;pointerEvents=1;" vertex="1" parent="DlH9ydsDUNCEq7BIyBJi-81">
          <mxGeometry x="90" width="10" height="10" as="geometry">
            <mxRectangle width="10" height="10" as="alternateBounds" />
          </mxGeometry>
        </mxCell>
        <mxCell id="DlH9ydsDUNCEq7BIyBJi-92" value="" style="shape=partialRectangle;html=1;whiteSpace=wrap;connectable=0;strokeColor=inherit;overflow=hidden;fillColor=none;top=0;left=0;bottom=0;right=0;pointerEvents=1;" vertex="1" parent="DlH9ydsDUNCEq7BIyBJi-81">
          <mxGeometry x="100" width="10" height="10" as="geometry">
            <mxRectangle width="10" height="10" as="alternateBounds" />
          </mxGeometry>
        </mxCell>
        <mxCell id="DlH9ydsDUNCEq7BIyBJi-93" value="" style="shape=partialRectangle;html=1;whiteSpace=wrap;connectable=0;strokeColor=inherit;overflow=hidden;fillColor=none;top=0;left=0;bottom=0;right=0;pointerEvents=1;" vertex="1" parent="DlH9ydsDUNCEq7BIyBJi-81">
          <mxGeometry x="110" width="10" height="10" as="geometry">
            <mxRectangle width="10" height="10" as="alternateBounds" />
          </mxGeometry>
        </mxCell>
        <mxCell id="DlH9ydsDUNCEq7BIyBJi-94" value="" style="shape=partialRectangle;html=1;whiteSpace=wrap;connectable=0;strokeColor=inherit;overflow=hidden;fillColor=none;top=0;left=0;bottom=0;right=0;pointerEvents=1;" vertex="1" parent="DlH9ydsDUNCEq7BIyBJi-81">
          <mxGeometry x="120" width="10" height="10" as="geometry">
            <mxRectangle width="10" height="10" as="alternateBounds" />
          </mxGeometry>
        </mxCell>
        <mxCell id="DlH9ydsDUNCEq7BIyBJi-95" value="" style="shape=partialRectangle;html=1;whiteSpace=wrap;connectable=0;strokeColor=inherit;overflow=hidden;fillColor=none;top=0;left=0;bottom=0;right=0;pointerEvents=1;" vertex="1" parent="DlH9ydsDUNCEq7BIyBJi-81">
          <mxGeometry x="130" width="10" height="10" as="geometry">
            <mxRectangle width="10" height="10" as="alternateBounds" />
          </mxGeometry>
        </mxCell>
        <mxCell id="DlH9ydsDUNCEq7BIyBJi-96" value="" style="shape=partialRectangle;html=1;whiteSpace=wrap;connectable=0;strokeColor=inherit;overflow=hidden;fillColor=none;top=0;left=0;bottom=0;right=0;pointerEvents=1;" vertex="1" parent="DlH9ydsDUNCEq7BIyBJi-81">
          <mxGeometry x="140" width="10" height="10" as="geometry">
            <mxRectangle width="10" height="10" as="alternateBounds" />
          </mxGeometry>
        </mxCell>
        <mxCell id="DlH9ydsDUNCEq7BIyBJi-97" value="" style="shape=tableRow;horizontal=0;startSize=0;swimlaneHead=0;swimlaneBody=0;strokeColor=inherit;top=0;left=0;bottom=0;right=0;collapsible=0;dropTarget=0;fillColor=none;points=[[0,0.5],[1,0.5]];portConstraint=eastwest;" vertex="1" parent="DlH9ydsDUNCEq7BIyBJi-32">
          <mxGeometry y="40" width="150" height="10" as="geometry" />
        </mxCell>
        <mxCell id="DlH9ydsDUNCEq7BIyBJi-98" value="" style="shape=partialRectangle;html=1;whiteSpace=wrap;connectable=0;strokeColor=inherit;overflow=hidden;fillColor=none;top=0;left=0;bottom=0;right=0;pointerEvents=1;" vertex="1" parent="DlH9ydsDUNCEq7BIyBJi-97">
          <mxGeometry width="10" height="10" as="geometry">
            <mxRectangle width="10" height="10" as="alternateBounds" />
          </mxGeometry>
        </mxCell>
        <mxCell id="DlH9ydsDUNCEq7BIyBJi-99" value="" style="shape=partialRectangle;html=1;whiteSpace=wrap;connectable=0;strokeColor=inherit;overflow=hidden;fillColor=none;top=0;left=0;bottom=0;right=0;pointerEvents=1;" vertex="1" parent="DlH9ydsDUNCEq7BIyBJi-97">
          <mxGeometry x="10" width="10" height="10" as="geometry">
            <mxRectangle width="10" height="10" as="alternateBounds" />
          </mxGeometry>
        </mxCell>
        <mxCell id="DlH9ydsDUNCEq7BIyBJi-100" value="" style="shape=partialRectangle;html=1;whiteSpace=wrap;connectable=0;strokeColor=inherit;overflow=hidden;fillColor=none;top=0;left=0;bottom=0;right=0;pointerEvents=1;" vertex="1" parent="DlH9ydsDUNCEq7BIyBJi-97">
          <mxGeometry x="20" width="10" height="10" as="geometry">
            <mxRectangle width="10" height="10" as="alternateBounds" />
          </mxGeometry>
        </mxCell>
        <mxCell id="DlH9ydsDUNCEq7BIyBJi-101" value="" style="shape=partialRectangle;html=1;whiteSpace=wrap;connectable=0;strokeColor=inherit;overflow=hidden;fillColor=none;top=0;left=0;bottom=0;right=0;pointerEvents=1;" vertex="1" parent="DlH9ydsDUNCEq7BIyBJi-97">
          <mxGeometry x="30" width="10" height="10" as="geometry">
            <mxRectangle width="10" height="10" as="alternateBounds" />
          </mxGeometry>
        </mxCell>
        <mxCell id="DlH9ydsDUNCEq7BIyBJi-102" value="" style="shape=partialRectangle;html=1;whiteSpace=wrap;connectable=0;strokeColor=inherit;overflow=hidden;fillColor=none;top=0;left=0;bottom=0;right=0;pointerEvents=1;" vertex="1" parent="DlH9ydsDUNCEq7BIyBJi-97">
          <mxGeometry x="40" width="10" height="10" as="geometry">
            <mxRectangle width="10" height="10" as="alternateBounds" />
          </mxGeometry>
        </mxCell>
        <mxCell id="DlH9ydsDUNCEq7BIyBJi-103" value="" style="shape=partialRectangle;html=1;whiteSpace=wrap;connectable=0;strokeColor=inherit;overflow=hidden;fillColor=none;top=0;left=0;bottom=0;right=0;pointerEvents=1;" vertex="1" parent="DlH9ydsDUNCEq7BIyBJi-97">
          <mxGeometry x="50" width="10" height="10" as="geometry">
            <mxRectangle width="10" height="10" as="alternateBounds" />
          </mxGeometry>
        </mxCell>
        <mxCell id="DlH9ydsDUNCEq7BIyBJi-104" value="" style="shape=partialRectangle;html=1;whiteSpace=wrap;connectable=0;strokeColor=inherit;overflow=hidden;fillColor=none;top=0;left=0;bottom=0;right=0;pointerEvents=1;" vertex="1" parent="DlH9ydsDUNCEq7BIyBJi-97">
          <mxGeometry x="60" width="10" height="10" as="geometry">
            <mxRectangle width="10" height="10" as="alternateBounds" />
          </mxGeometry>
        </mxCell>
        <mxCell id="DlH9ydsDUNCEq7BIyBJi-105" value="" style="shape=partialRectangle;html=1;whiteSpace=wrap;connectable=0;strokeColor=inherit;overflow=hidden;fillColor=none;top=0;left=0;bottom=0;right=0;pointerEvents=1;" vertex="1" parent="DlH9ydsDUNCEq7BIyBJi-97">
          <mxGeometry x="70" width="10" height="10" as="geometry">
            <mxRectangle width="10" height="10" as="alternateBounds" />
          </mxGeometry>
        </mxCell>
        <mxCell id="DlH9ydsDUNCEq7BIyBJi-106" value="" style="shape=partialRectangle;html=1;whiteSpace=wrap;connectable=0;strokeColor=inherit;overflow=hidden;fillColor=none;top=0;left=0;bottom=0;right=0;pointerEvents=1;" vertex="1" parent="DlH9ydsDUNCEq7BIyBJi-97">
          <mxGeometry x="80" width="10" height="10" as="geometry">
            <mxRectangle width="10" height="10" as="alternateBounds" />
          </mxGeometry>
        </mxCell>
        <mxCell id="DlH9ydsDUNCEq7BIyBJi-107" value="" style="shape=partialRectangle;html=1;whiteSpace=wrap;connectable=0;strokeColor=inherit;overflow=hidden;fillColor=none;top=0;left=0;bottom=0;right=0;pointerEvents=1;" vertex="1" parent="DlH9ydsDUNCEq7BIyBJi-97">
          <mxGeometry x="90" width="10" height="10" as="geometry">
            <mxRectangle width="10" height="10" as="alternateBounds" />
          </mxGeometry>
        </mxCell>
        <mxCell id="DlH9ydsDUNCEq7BIyBJi-108" value="" style="shape=partialRectangle;html=1;whiteSpace=wrap;connectable=0;strokeColor=inherit;overflow=hidden;fillColor=none;top=0;left=0;bottom=0;right=0;pointerEvents=1;" vertex="1" parent="DlH9ydsDUNCEq7BIyBJi-97">
          <mxGeometry x="100" width="10" height="10" as="geometry">
            <mxRectangle width="10" height="10" as="alternateBounds" />
          </mxGeometry>
        </mxCell>
        <mxCell id="DlH9ydsDUNCEq7BIyBJi-109" value="" style="shape=partialRectangle;html=1;whiteSpace=wrap;connectable=0;strokeColor=inherit;overflow=hidden;fillColor=none;top=0;left=0;bottom=0;right=0;pointerEvents=1;" vertex="1" parent="DlH9ydsDUNCEq7BIyBJi-97">
          <mxGeometry x="110" width="10" height="10" as="geometry">
            <mxRectangle width="10" height="10" as="alternateBounds" />
          </mxGeometry>
        </mxCell>
        <mxCell id="DlH9ydsDUNCEq7BIyBJi-110" value="" style="shape=partialRectangle;html=1;whiteSpace=wrap;connectable=0;strokeColor=inherit;overflow=hidden;fillColor=none;top=0;left=0;bottom=0;right=0;pointerEvents=1;" vertex="1" parent="DlH9ydsDUNCEq7BIyBJi-97">
          <mxGeometry x="120" width="10" height="10" as="geometry">
            <mxRectangle width="10" height="10" as="alternateBounds" />
          </mxGeometry>
        </mxCell>
        <mxCell id="DlH9ydsDUNCEq7BIyBJi-111" value="" style="shape=partialRectangle;html=1;whiteSpace=wrap;connectable=0;strokeColor=inherit;overflow=hidden;fillColor=none;top=0;left=0;bottom=0;right=0;pointerEvents=1;" vertex="1" parent="DlH9ydsDUNCEq7BIyBJi-97">
          <mxGeometry x="130" width="10" height="10" as="geometry">
            <mxRectangle width="10" height="10" as="alternateBounds" />
          </mxGeometry>
        </mxCell>
        <mxCell id="DlH9ydsDUNCEq7BIyBJi-112" value="" style="shape=partialRectangle;html=1;whiteSpace=wrap;connectable=0;strokeColor=inherit;overflow=hidden;fillColor=none;top=0;left=0;bottom=0;right=0;pointerEvents=1;" vertex="1" parent="DlH9ydsDUNCEq7BIyBJi-97">
          <mxGeometry x="140" width="10" height="10" as="geometry">
            <mxRectangle width="10" height="10" as="alternateBounds" />
          </mxGeometry>
        </mxCell>
        <mxCell id="DlH9ydsDUNCEq7BIyBJi-113" value="" style="shape=tableRow;horizontal=0;startSize=0;swimlaneHead=0;swimlaneBody=0;strokeColor=inherit;top=0;left=0;bottom=0;right=0;collapsible=0;dropTarget=0;fillColor=none;points=[[0,0.5],[1,0.5]];portConstraint=eastwest;" vertex="1" parent="DlH9ydsDUNCEq7BIyBJi-32">
          <mxGeometry y="50" width="150" height="10" as="geometry" />
        </mxCell>
        <mxCell id="DlH9ydsDUNCEq7BIyBJi-114" value="" style="shape=partialRectangle;html=1;whiteSpace=wrap;connectable=0;strokeColor=inherit;overflow=hidden;fillColor=none;top=0;left=0;bottom=0;right=0;pointerEvents=1;" vertex="1" parent="DlH9ydsDUNCEq7BIyBJi-113">
          <mxGeometry width="10" height="10" as="geometry">
            <mxRectangle width="10" height="10" as="alternateBounds" />
          </mxGeometry>
        </mxCell>
        <mxCell id="DlH9ydsDUNCEq7BIyBJi-115" value="" style="shape=partialRectangle;html=1;whiteSpace=wrap;connectable=0;strokeColor=inherit;overflow=hidden;fillColor=none;top=0;left=0;bottom=0;right=0;pointerEvents=1;" vertex="1" parent="DlH9ydsDUNCEq7BIyBJi-113">
          <mxGeometry x="10" width="10" height="10" as="geometry">
            <mxRectangle width="10" height="10" as="alternateBounds" />
          </mxGeometry>
        </mxCell>
        <mxCell id="DlH9ydsDUNCEq7BIyBJi-116" value="" style="shape=partialRectangle;html=1;whiteSpace=wrap;connectable=0;strokeColor=inherit;overflow=hidden;fillColor=none;top=0;left=0;bottom=0;right=0;pointerEvents=1;" vertex="1" parent="DlH9ydsDUNCEq7BIyBJi-113">
          <mxGeometry x="20" width="10" height="10" as="geometry">
            <mxRectangle width="10" height="10" as="alternateBounds" />
          </mxGeometry>
        </mxCell>
        <mxCell id="DlH9ydsDUNCEq7BIyBJi-117" value="" style="shape=partialRectangle;html=1;whiteSpace=wrap;connectable=0;strokeColor=inherit;overflow=hidden;fillColor=none;top=0;left=0;bottom=0;right=0;pointerEvents=1;" vertex="1" parent="DlH9ydsDUNCEq7BIyBJi-113">
          <mxGeometry x="30" width="10" height="10" as="geometry">
            <mxRectangle width="10" height="10" as="alternateBounds" />
          </mxGeometry>
        </mxCell>
        <mxCell id="DlH9ydsDUNCEq7BIyBJi-118" value="" style="shape=partialRectangle;html=1;whiteSpace=wrap;connectable=0;strokeColor=inherit;overflow=hidden;fillColor=none;top=0;left=0;bottom=0;right=0;pointerEvents=1;" vertex="1" parent="DlH9ydsDUNCEq7BIyBJi-113">
          <mxGeometry x="40" width="10" height="10" as="geometry">
            <mxRectangle width="10" height="10" as="alternateBounds" />
          </mxGeometry>
        </mxCell>
        <mxCell id="DlH9ydsDUNCEq7BIyBJi-119" value="" style="shape=partialRectangle;html=1;whiteSpace=wrap;connectable=0;strokeColor=inherit;overflow=hidden;fillColor=none;top=0;left=0;bottom=0;right=0;pointerEvents=1;" vertex="1" parent="DlH9ydsDUNCEq7BIyBJi-113">
          <mxGeometry x="50" width="10" height="10" as="geometry">
            <mxRectangle width="10" height="10" as="alternateBounds" />
          </mxGeometry>
        </mxCell>
        <mxCell id="DlH9ydsDUNCEq7BIyBJi-120" value="" style="shape=partialRectangle;html=1;whiteSpace=wrap;connectable=0;strokeColor=inherit;overflow=hidden;fillColor=none;top=0;left=0;bottom=0;right=0;pointerEvents=1;" vertex="1" parent="DlH9ydsDUNCEq7BIyBJi-113">
          <mxGeometry x="60" width="10" height="10" as="geometry">
            <mxRectangle width="10" height="10" as="alternateBounds" />
          </mxGeometry>
        </mxCell>
        <mxCell id="DlH9ydsDUNCEq7BIyBJi-121" value="" style="shape=partialRectangle;html=1;whiteSpace=wrap;connectable=0;strokeColor=inherit;overflow=hidden;fillColor=none;top=0;left=0;bottom=0;right=0;pointerEvents=1;" vertex="1" parent="DlH9ydsDUNCEq7BIyBJi-113">
          <mxGeometry x="70" width="10" height="10" as="geometry">
            <mxRectangle width="10" height="10" as="alternateBounds" />
          </mxGeometry>
        </mxCell>
        <mxCell id="DlH9ydsDUNCEq7BIyBJi-122" value="" style="shape=partialRectangle;html=1;whiteSpace=wrap;connectable=0;strokeColor=inherit;overflow=hidden;fillColor=none;top=0;left=0;bottom=0;right=0;pointerEvents=1;" vertex="1" parent="DlH9ydsDUNCEq7BIyBJi-113">
          <mxGeometry x="80" width="10" height="10" as="geometry">
            <mxRectangle width="10" height="10" as="alternateBounds" />
          </mxGeometry>
        </mxCell>
        <mxCell id="DlH9ydsDUNCEq7BIyBJi-123" value="" style="shape=partialRectangle;html=1;whiteSpace=wrap;connectable=0;strokeColor=inherit;overflow=hidden;fillColor=none;top=0;left=0;bottom=0;right=0;pointerEvents=1;" vertex="1" parent="DlH9ydsDUNCEq7BIyBJi-113">
          <mxGeometry x="90" width="10" height="10" as="geometry">
            <mxRectangle width="10" height="10" as="alternateBounds" />
          </mxGeometry>
        </mxCell>
        <mxCell id="DlH9ydsDUNCEq7BIyBJi-124" value="" style="shape=partialRectangle;html=1;whiteSpace=wrap;connectable=0;strokeColor=inherit;overflow=hidden;fillColor=none;top=0;left=0;bottom=0;right=0;pointerEvents=1;" vertex="1" parent="DlH9ydsDUNCEq7BIyBJi-113">
          <mxGeometry x="100" width="10" height="10" as="geometry">
            <mxRectangle width="10" height="10" as="alternateBounds" />
          </mxGeometry>
        </mxCell>
        <mxCell id="DlH9ydsDUNCEq7BIyBJi-125" value="" style="shape=partialRectangle;html=1;whiteSpace=wrap;connectable=0;strokeColor=inherit;overflow=hidden;fillColor=none;top=0;left=0;bottom=0;right=0;pointerEvents=1;" vertex="1" parent="DlH9ydsDUNCEq7BIyBJi-113">
          <mxGeometry x="110" width="10" height="10" as="geometry">
            <mxRectangle width="10" height="10" as="alternateBounds" />
          </mxGeometry>
        </mxCell>
        <mxCell id="DlH9ydsDUNCEq7BIyBJi-126" value="" style="shape=partialRectangle;html=1;whiteSpace=wrap;connectable=0;strokeColor=inherit;overflow=hidden;fillColor=none;top=0;left=0;bottom=0;right=0;pointerEvents=1;" vertex="1" parent="DlH9ydsDUNCEq7BIyBJi-113">
          <mxGeometry x="120" width="10" height="10" as="geometry">
            <mxRectangle width="10" height="10" as="alternateBounds" />
          </mxGeometry>
        </mxCell>
        <mxCell id="DlH9ydsDUNCEq7BIyBJi-127" value="" style="shape=partialRectangle;html=1;whiteSpace=wrap;connectable=0;strokeColor=inherit;overflow=hidden;fillColor=none;top=0;left=0;bottom=0;right=0;pointerEvents=1;" vertex="1" parent="DlH9ydsDUNCEq7BIyBJi-113">
          <mxGeometry x="130" width="10" height="10" as="geometry">
            <mxRectangle width="10" height="10" as="alternateBounds" />
          </mxGeometry>
        </mxCell>
        <mxCell id="DlH9ydsDUNCEq7BIyBJi-128" value="" style="shape=partialRectangle;html=1;whiteSpace=wrap;connectable=0;strokeColor=inherit;overflow=hidden;fillColor=none;top=0;left=0;bottom=0;right=0;pointerEvents=1;" vertex="1" parent="DlH9ydsDUNCEq7BIyBJi-113">
          <mxGeometry x="140" width="10" height="10" as="geometry">
            <mxRectangle width="10" height="10" as="alternateBounds" />
          </mxGeometry>
        </mxCell>
        <mxCell id="DlH9ydsDUNCEq7BIyBJi-129" value="" style="shape=tableRow;horizontal=0;startSize=0;swimlaneHead=0;swimlaneBody=0;strokeColor=inherit;top=0;left=0;bottom=0;right=0;collapsible=0;dropTarget=0;fillColor=none;points=[[0,0.5],[1,0.5]];portConstraint=eastwest;" vertex="1" parent="DlH9ydsDUNCEq7BIyBJi-32">
          <mxGeometry y="60" width="150" height="10" as="geometry" />
        </mxCell>
        <mxCell id="DlH9ydsDUNCEq7BIyBJi-130" value="" style="shape=partialRectangle;html=1;whiteSpace=wrap;connectable=0;strokeColor=inherit;overflow=hidden;fillColor=none;top=0;left=0;bottom=0;right=0;pointerEvents=1;" vertex="1" parent="DlH9ydsDUNCEq7BIyBJi-129">
          <mxGeometry width="10" height="10" as="geometry">
            <mxRectangle width="10" height="10" as="alternateBounds" />
          </mxGeometry>
        </mxCell>
        <mxCell id="DlH9ydsDUNCEq7BIyBJi-131" value="" style="shape=partialRectangle;html=1;whiteSpace=wrap;connectable=0;strokeColor=inherit;overflow=hidden;fillColor=none;top=0;left=0;bottom=0;right=0;pointerEvents=1;" vertex="1" parent="DlH9ydsDUNCEq7BIyBJi-129">
          <mxGeometry x="10" width="10" height="10" as="geometry">
            <mxRectangle width="10" height="10" as="alternateBounds" />
          </mxGeometry>
        </mxCell>
        <mxCell id="DlH9ydsDUNCEq7BIyBJi-132" value="" style="shape=partialRectangle;html=1;whiteSpace=wrap;connectable=0;strokeColor=inherit;overflow=hidden;fillColor=none;top=0;left=0;bottom=0;right=0;pointerEvents=1;" vertex="1" parent="DlH9ydsDUNCEq7BIyBJi-129">
          <mxGeometry x="20" width="10" height="10" as="geometry">
            <mxRectangle width="10" height="10" as="alternateBounds" />
          </mxGeometry>
        </mxCell>
        <mxCell id="DlH9ydsDUNCEq7BIyBJi-133" value="" style="shape=partialRectangle;html=1;whiteSpace=wrap;connectable=0;strokeColor=inherit;overflow=hidden;fillColor=none;top=0;left=0;bottom=0;right=0;pointerEvents=1;" vertex="1" parent="DlH9ydsDUNCEq7BIyBJi-129">
          <mxGeometry x="30" width="10" height="10" as="geometry">
            <mxRectangle width="10" height="10" as="alternateBounds" />
          </mxGeometry>
        </mxCell>
        <mxCell id="DlH9ydsDUNCEq7BIyBJi-134" value="" style="shape=partialRectangle;html=1;whiteSpace=wrap;connectable=0;strokeColor=inherit;overflow=hidden;fillColor=none;top=0;left=0;bottom=0;right=0;pointerEvents=1;" vertex="1" parent="DlH9ydsDUNCEq7BIyBJi-129">
          <mxGeometry x="40" width="10" height="10" as="geometry">
            <mxRectangle width="10" height="10" as="alternateBounds" />
          </mxGeometry>
        </mxCell>
        <mxCell id="DlH9ydsDUNCEq7BIyBJi-135" value="" style="shape=partialRectangle;html=1;whiteSpace=wrap;connectable=0;strokeColor=inherit;overflow=hidden;fillColor=none;top=0;left=0;bottom=0;right=0;pointerEvents=1;" vertex="1" parent="DlH9ydsDUNCEq7BIyBJi-129">
          <mxGeometry x="50" width="10" height="10" as="geometry">
            <mxRectangle width="10" height="10" as="alternateBounds" />
          </mxGeometry>
        </mxCell>
        <mxCell id="DlH9ydsDUNCEq7BIyBJi-136" value="" style="shape=partialRectangle;html=1;whiteSpace=wrap;connectable=0;strokeColor=inherit;overflow=hidden;fillColor=none;top=0;left=0;bottom=0;right=0;pointerEvents=1;" vertex="1" parent="DlH9ydsDUNCEq7BIyBJi-129">
          <mxGeometry x="60" width="10" height="10" as="geometry">
            <mxRectangle width="10" height="10" as="alternateBounds" />
          </mxGeometry>
        </mxCell>
        <mxCell id="DlH9ydsDUNCEq7BIyBJi-137" value="" style="shape=partialRectangle;html=1;whiteSpace=wrap;connectable=0;strokeColor=inherit;overflow=hidden;fillColor=none;top=0;left=0;bottom=0;right=0;pointerEvents=1;" vertex="1" parent="DlH9ydsDUNCEq7BIyBJi-129">
          <mxGeometry x="70" width="10" height="10" as="geometry">
            <mxRectangle width="10" height="10" as="alternateBounds" />
          </mxGeometry>
        </mxCell>
        <mxCell id="DlH9ydsDUNCEq7BIyBJi-138" value="" style="shape=partialRectangle;html=1;whiteSpace=wrap;connectable=0;strokeColor=inherit;overflow=hidden;fillColor=none;top=0;left=0;bottom=0;right=0;pointerEvents=1;" vertex="1" parent="DlH9ydsDUNCEq7BIyBJi-129">
          <mxGeometry x="80" width="10" height="10" as="geometry">
            <mxRectangle width="10" height="10" as="alternateBounds" />
          </mxGeometry>
        </mxCell>
        <mxCell id="DlH9ydsDUNCEq7BIyBJi-139" value="" style="shape=partialRectangle;html=1;whiteSpace=wrap;connectable=0;strokeColor=inherit;overflow=hidden;fillColor=none;top=0;left=0;bottom=0;right=0;pointerEvents=1;" vertex="1" parent="DlH9ydsDUNCEq7BIyBJi-129">
          <mxGeometry x="90" width="10" height="10" as="geometry">
            <mxRectangle width="10" height="10" as="alternateBounds" />
          </mxGeometry>
        </mxCell>
        <mxCell id="DlH9ydsDUNCEq7BIyBJi-140" value="" style="shape=partialRectangle;html=1;whiteSpace=wrap;connectable=0;strokeColor=inherit;overflow=hidden;fillColor=none;top=0;left=0;bottom=0;right=0;pointerEvents=1;" vertex="1" parent="DlH9ydsDUNCEq7BIyBJi-129">
          <mxGeometry x="100" width="10" height="10" as="geometry">
            <mxRectangle width="10" height="10" as="alternateBounds" />
          </mxGeometry>
        </mxCell>
        <mxCell id="DlH9ydsDUNCEq7BIyBJi-141" value="" style="shape=partialRectangle;html=1;whiteSpace=wrap;connectable=0;strokeColor=inherit;overflow=hidden;fillColor=none;top=0;left=0;bottom=0;right=0;pointerEvents=1;" vertex="1" parent="DlH9ydsDUNCEq7BIyBJi-129">
          <mxGeometry x="110" width="10" height="10" as="geometry">
            <mxRectangle width="10" height="10" as="alternateBounds" />
          </mxGeometry>
        </mxCell>
        <mxCell id="DlH9ydsDUNCEq7BIyBJi-142" value="" style="shape=partialRectangle;html=1;whiteSpace=wrap;connectable=0;strokeColor=inherit;overflow=hidden;fillColor=none;top=0;left=0;bottom=0;right=0;pointerEvents=1;" vertex="1" parent="DlH9ydsDUNCEq7BIyBJi-129">
          <mxGeometry x="120" width="10" height="10" as="geometry">
            <mxRectangle width="10" height="10" as="alternateBounds" />
          </mxGeometry>
        </mxCell>
        <mxCell id="DlH9ydsDUNCEq7BIyBJi-143" value="" style="shape=partialRectangle;html=1;whiteSpace=wrap;connectable=0;strokeColor=inherit;overflow=hidden;fillColor=none;top=0;left=0;bottom=0;right=0;pointerEvents=1;" vertex="1" parent="DlH9ydsDUNCEq7BIyBJi-129">
          <mxGeometry x="130" width="10" height="10" as="geometry">
            <mxRectangle width="10" height="10" as="alternateBounds" />
          </mxGeometry>
        </mxCell>
        <mxCell id="DlH9ydsDUNCEq7BIyBJi-144" value="" style="shape=partialRectangle;html=1;whiteSpace=wrap;connectable=0;strokeColor=inherit;overflow=hidden;fillColor=none;top=0;left=0;bottom=0;right=0;pointerEvents=1;" vertex="1" parent="DlH9ydsDUNCEq7BIyBJi-129">
          <mxGeometry x="140" width="10" height="10" as="geometry">
            <mxRectangle width="10" height="10" as="alternateBounds" />
          </mxGeometry>
        </mxCell>
        <mxCell id="DlH9ydsDUNCEq7BIyBJi-145" value="" style="shape=tableRow;horizontal=0;startSize=0;swimlaneHead=0;swimlaneBody=0;strokeColor=inherit;top=0;left=0;bottom=0;right=0;collapsible=0;dropTarget=0;fillColor=none;points=[[0,0.5],[1,0.5]];portConstraint=eastwest;" vertex="1" parent="DlH9ydsDUNCEq7BIyBJi-32">
          <mxGeometry y="70" width="150" height="10" as="geometry" />
        </mxCell>
        <mxCell id="DlH9ydsDUNCEq7BIyBJi-146" value="" style="shape=partialRectangle;html=1;whiteSpace=wrap;connectable=0;strokeColor=inherit;overflow=hidden;fillColor=none;top=0;left=0;bottom=0;right=0;pointerEvents=1;" vertex="1" parent="DlH9ydsDUNCEq7BIyBJi-145">
          <mxGeometry width="10" height="10" as="geometry">
            <mxRectangle width="10" height="10" as="alternateBounds" />
          </mxGeometry>
        </mxCell>
        <mxCell id="DlH9ydsDUNCEq7BIyBJi-147" value="" style="shape=partialRectangle;html=1;whiteSpace=wrap;connectable=0;strokeColor=inherit;overflow=hidden;fillColor=none;top=0;left=0;bottom=0;right=0;pointerEvents=1;" vertex="1" parent="DlH9ydsDUNCEq7BIyBJi-145">
          <mxGeometry x="10" width="10" height="10" as="geometry">
            <mxRectangle width="10" height="10" as="alternateBounds" />
          </mxGeometry>
        </mxCell>
        <mxCell id="DlH9ydsDUNCEq7BIyBJi-148" value="" style="shape=partialRectangle;html=1;whiteSpace=wrap;connectable=0;strokeColor=inherit;overflow=hidden;fillColor=none;top=0;left=0;bottom=0;right=0;pointerEvents=1;" vertex="1" parent="DlH9ydsDUNCEq7BIyBJi-145">
          <mxGeometry x="20" width="10" height="10" as="geometry">
            <mxRectangle width="10" height="10" as="alternateBounds" />
          </mxGeometry>
        </mxCell>
        <mxCell id="DlH9ydsDUNCEq7BIyBJi-149" value="" style="shape=partialRectangle;html=1;whiteSpace=wrap;connectable=0;strokeColor=inherit;overflow=hidden;fillColor=none;top=0;left=0;bottom=0;right=0;pointerEvents=1;" vertex="1" parent="DlH9ydsDUNCEq7BIyBJi-145">
          <mxGeometry x="30" width="10" height="10" as="geometry">
            <mxRectangle width="10" height="10" as="alternateBounds" />
          </mxGeometry>
        </mxCell>
        <mxCell id="DlH9ydsDUNCEq7BIyBJi-150" value="" style="shape=partialRectangle;html=1;whiteSpace=wrap;connectable=0;strokeColor=inherit;overflow=hidden;fillColor=none;top=0;left=0;bottom=0;right=0;pointerEvents=1;" vertex="1" parent="DlH9ydsDUNCEq7BIyBJi-145">
          <mxGeometry x="40" width="10" height="10" as="geometry">
            <mxRectangle width="10" height="10" as="alternateBounds" />
          </mxGeometry>
        </mxCell>
        <mxCell id="DlH9ydsDUNCEq7BIyBJi-151" value="" style="shape=partialRectangle;html=1;whiteSpace=wrap;connectable=0;strokeColor=inherit;overflow=hidden;fillColor=none;top=0;left=0;bottom=0;right=0;pointerEvents=1;" vertex="1" parent="DlH9ydsDUNCEq7BIyBJi-145">
          <mxGeometry x="50" width="10" height="10" as="geometry">
            <mxRectangle width="10" height="10" as="alternateBounds" />
          </mxGeometry>
        </mxCell>
        <mxCell id="DlH9ydsDUNCEq7BIyBJi-152" value="" style="shape=partialRectangle;html=1;whiteSpace=wrap;connectable=0;strokeColor=inherit;overflow=hidden;fillColor=none;top=0;left=0;bottom=0;right=0;pointerEvents=1;" vertex="1" parent="DlH9ydsDUNCEq7BIyBJi-145">
          <mxGeometry x="60" width="10" height="10" as="geometry">
            <mxRectangle width="10" height="10" as="alternateBounds" />
          </mxGeometry>
        </mxCell>
        <mxCell id="DlH9ydsDUNCEq7BIyBJi-153" value="" style="shape=partialRectangle;html=1;whiteSpace=wrap;connectable=0;strokeColor=inherit;overflow=hidden;fillColor=none;top=0;left=0;bottom=0;right=0;pointerEvents=1;" vertex="1" parent="DlH9ydsDUNCEq7BIyBJi-145">
          <mxGeometry x="70" width="10" height="10" as="geometry">
            <mxRectangle width="10" height="10" as="alternateBounds" />
          </mxGeometry>
        </mxCell>
        <mxCell id="DlH9ydsDUNCEq7BIyBJi-154" value="" style="shape=partialRectangle;html=1;whiteSpace=wrap;connectable=0;strokeColor=inherit;overflow=hidden;fillColor=none;top=0;left=0;bottom=0;right=0;pointerEvents=1;" vertex="1" parent="DlH9ydsDUNCEq7BIyBJi-145">
          <mxGeometry x="80" width="10" height="10" as="geometry">
            <mxRectangle width="10" height="10" as="alternateBounds" />
          </mxGeometry>
        </mxCell>
        <mxCell id="DlH9ydsDUNCEq7BIyBJi-155" value="" style="shape=partialRectangle;html=1;whiteSpace=wrap;connectable=0;strokeColor=inherit;overflow=hidden;fillColor=none;top=0;left=0;bottom=0;right=0;pointerEvents=1;" vertex="1" parent="DlH9ydsDUNCEq7BIyBJi-145">
          <mxGeometry x="90" width="10" height="10" as="geometry">
            <mxRectangle width="10" height="10" as="alternateBounds" />
          </mxGeometry>
        </mxCell>
        <mxCell id="DlH9ydsDUNCEq7BIyBJi-156" value="" style="shape=partialRectangle;html=1;whiteSpace=wrap;connectable=0;strokeColor=inherit;overflow=hidden;fillColor=none;top=0;left=0;bottom=0;right=0;pointerEvents=1;" vertex="1" parent="DlH9ydsDUNCEq7BIyBJi-145">
          <mxGeometry x="100" width="10" height="10" as="geometry">
            <mxRectangle width="10" height="10" as="alternateBounds" />
          </mxGeometry>
        </mxCell>
        <mxCell id="DlH9ydsDUNCEq7BIyBJi-157" value="" style="shape=partialRectangle;html=1;whiteSpace=wrap;connectable=0;strokeColor=inherit;overflow=hidden;fillColor=none;top=0;left=0;bottom=0;right=0;pointerEvents=1;" vertex="1" parent="DlH9ydsDUNCEq7BIyBJi-145">
          <mxGeometry x="110" width="10" height="10" as="geometry">
            <mxRectangle width="10" height="10" as="alternateBounds" />
          </mxGeometry>
        </mxCell>
        <mxCell id="DlH9ydsDUNCEq7BIyBJi-158" value="" style="shape=partialRectangle;html=1;whiteSpace=wrap;connectable=0;strokeColor=inherit;overflow=hidden;fillColor=none;top=0;left=0;bottom=0;right=0;pointerEvents=1;" vertex="1" parent="DlH9ydsDUNCEq7BIyBJi-145">
          <mxGeometry x="120" width="10" height="10" as="geometry">
            <mxRectangle width="10" height="10" as="alternateBounds" />
          </mxGeometry>
        </mxCell>
        <mxCell id="DlH9ydsDUNCEq7BIyBJi-159" value="" style="shape=partialRectangle;html=1;whiteSpace=wrap;connectable=0;strokeColor=inherit;overflow=hidden;fillColor=none;top=0;left=0;bottom=0;right=0;pointerEvents=1;" vertex="1" parent="DlH9ydsDUNCEq7BIyBJi-145">
          <mxGeometry x="130" width="10" height="10" as="geometry">
            <mxRectangle width="10" height="10" as="alternateBounds" />
          </mxGeometry>
        </mxCell>
        <mxCell id="DlH9ydsDUNCEq7BIyBJi-160" value="" style="shape=partialRectangle;html=1;whiteSpace=wrap;connectable=0;strokeColor=inherit;overflow=hidden;fillColor=none;top=0;left=0;bottom=0;right=0;pointerEvents=1;" vertex="1" parent="DlH9ydsDUNCEq7BIyBJi-145">
          <mxGeometry x="140" width="10" height="10" as="geometry">
            <mxRectangle width="10" height="10" as="alternateBounds" />
          </mxGeometry>
        </mxCell>
        <mxCell id="DlH9ydsDUNCEq7BIyBJi-161" value="" style="shape=tableRow;horizontal=0;startSize=0;swimlaneHead=0;swimlaneBody=0;strokeColor=inherit;top=0;left=0;bottom=0;right=0;collapsible=0;dropTarget=0;fillColor=none;points=[[0,0.5],[1,0.5]];portConstraint=eastwest;" vertex="1" parent="DlH9ydsDUNCEq7BIyBJi-32">
          <mxGeometry y="80" width="150" height="10" as="geometry" />
        </mxCell>
        <mxCell id="DlH9ydsDUNCEq7BIyBJi-162" value="" style="shape=partialRectangle;html=1;whiteSpace=wrap;connectable=0;strokeColor=inherit;overflow=hidden;fillColor=none;top=0;left=0;bottom=0;right=0;pointerEvents=1;" vertex="1" parent="DlH9ydsDUNCEq7BIyBJi-161">
          <mxGeometry width="10" height="10" as="geometry">
            <mxRectangle width="10" height="10" as="alternateBounds" />
          </mxGeometry>
        </mxCell>
        <mxCell id="DlH9ydsDUNCEq7BIyBJi-163" value="" style="shape=partialRectangle;html=1;whiteSpace=wrap;connectable=0;strokeColor=inherit;overflow=hidden;fillColor=none;top=0;left=0;bottom=0;right=0;pointerEvents=1;" vertex="1" parent="DlH9ydsDUNCEq7BIyBJi-161">
          <mxGeometry x="10" width="10" height="10" as="geometry">
            <mxRectangle width="10" height="10" as="alternateBounds" />
          </mxGeometry>
        </mxCell>
        <mxCell id="DlH9ydsDUNCEq7BIyBJi-164" value="" style="shape=partialRectangle;html=1;whiteSpace=wrap;connectable=0;strokeColor=inherit;overflow=hidden;fillColor=none;top=0;left=0;bottom=0;right=0;pointerEvents=1;" vertex="1" parent="DlH9ydsDUNCEq7BIyBJi-161">
          <mxGeometry x="20" width="10" height="10" as="geometry">
            <mxRectangle width="10" height="10" as="alternateBounds" />
          </mxGeometry>
        </mxCell>
        <mxCell id="DlH9ydsDUNCEq7BIyBJi-165" value="" style="shape=partialRectangle;html=1;whiteSpace=wrap;connectable=0;strokeColor=inherit;overflow=hidden;fillColor=none;top=0;left=0;bottom=0;right=0;pointerEvents=1;" vertex="1" parent="DlH9ydsDUNCEq7BIyBJi-161">
          <mxGeometry x="30" width="10" height="10" as="geometry">
            <mxRectangle width="10" height="10" as="alternateBounds" />
          </mxGeometry>
        </mxCell>
        <mxCell id="DlH9ydsDUNCEq7BIyBJi-166" value="" style="shape=partialRectangle;html=1;whiteSpace=wrap;connectable=0;strokeColor=inherit;overflow=hidden;fillColor=none;top=0;left=0;bottom=0;right=0;pointerEvents=1;" vertex="1" parent="DlH9ydsDUNCEq7BIyBJi-161">
          <mxGeometry x="40" width="10" height="10" as="geometry">
            <mxRectangle width="10" height="10" as="alternateBounds" />
          </mxGeometry>
        </mxCell>
        <mxCell id="DlH9ydsDUNCEq7BIyBJi-167" value="" style="shape=partialRectangle;html=1;whiteSpace=wrap;connectable=0;strokeColor=inherit;overflow=hidden;fillColor=none;top=0;left=0;bottom=0;right=0;pointerEvents=1;" vertex="1" parent="DlH9ydsDUNCEq7BIyBJi-161">
          <mxGeometry x="50" width="10" height="10" as="geometry">
            <mxRectangle width="10" height="10" as="alternateBounds" />
          </mxGeometry>
        </mxCell>
        <mxCell id="DlH9ydsDUNCEq7BIyBJi-168" value="" style="shape=partialRectangle;html=1;whiteSpace=wrap;connectable=0;strokeColor=inherit;overflow=hidden;fillColor=none;top=0;left=0;bottom=0;right=0;pointerEvents=1;" vertex="1" parent="DlH9ydsDUNCEq7BIyBJi-161">
          <mxGeometry x="60" width="10" height="10" as="geometry">
            <mxRectangle width="10" height="10" as="alternateBounds" />
          </mxGeometry>
        </mxCell>
        <mxCell id="DlH9ydsDUNCEq7BIyBJi-169" value="" style="shape=partialRectangle;html=1;whiteSpace=wrap;connectable=0;strokeColor=inherit;overflow=hidden;fillColor=none;top=0;left=0;bottom=0;right=0;pointerEvents=1;" vertex="1" parent="DlH9ydsDUNCEq7BIyBJi-161">
          <mxGeometry x="70" width="10" height="10" as="geometry">
            <mxRectangle width="10" height="10" as="alternateBounds" />
          </mxGeometry>
        </mxCell>
        <mxCell id="DlH9ydsDUNCEq7BIyBJi-170" value="" style="shape=partialRectangle;html=1;whiteSpace=wrap;connectable=0;strokeColor=inherit;overflow=hidden;fillColor=none;top=0;left=0;bottom=0;right=0;pointerEvents=1;" vertex="1" parent="DlH9ydsDUNCEq7BIyBJi-161">
          <mxGeometry x="80" width="10" height="10" as="geometry">
            <mxRectangle width="10" height="10" as="alternateBounds" />
          </mxGeometry>
        </mxCell>
        <mxCell id="DlH9ydsDUNCEq7BIyBJi-171" value="" style="shape=partialRectangle;html=1;whiteSpace=wrap;connectable=0;strokeColor=inherit;overflow=hidden;fillColor=none;top=0;left=0;bottom=0;right=0;pointerEvents=1;" vertex="1" parent="DlH9ydsDUNCEq7BIyBJi-161">
          <mxGeometry x="90" width="10" height="10" as="geometry">
            <mxRectangle width="10" height="10" as="alternateBounds" />
          </mxGeometry>
        </mxCell>
        <mxCell id="DlH9ydsDUNCEq7BIyBJi-172" value="" style="shape=partialRectangle;html=1;whiteSpace=wrap;connectable=0;strokeColor=inherit;overflow=hidden;fillColor=none;top=0;left=0;bottom=0;right=0;pointerEvents=1;" vertex="1" parent="DlH9ydsDUNCEq7BIyBJi-161">
          <mxGeometry x="100" width="10" height="10" as="geometry">
            <mxRectangle width="10" height="10" as="alternateBounds" />
          </mxGeometry>
        </mxCell>
        <mxCell id="DlH9ydsDUNCEq7BIyBJi-173" value="" style="shape=partialRectangle;html=1;whiteSpace=wrap;connectable=0;strokeColor=inherit;overflow=hidden;fillColor=none;top=0;left=0;bottom=0;right=0;pointerEvents=1;" vertex="1" parent="DlH9ydsDUNCEq7BIyBJi-161">
          <mxGeometry x="110" width="10" height="10" as="geometry">
            <mxRectangle width="10" height="10" as="alternateBounds" />
          </mxGeometry>
        </mxCell>
        <mxCell id="DlH9ydsDUNCEq7BIyBJi-174" value="" style="shape=partialRectangle;html=1;whiteSpace=wrap;connectable=0;strokeColor=inherit;overflow=hidden;fillColor=none;top=0;left=0;bottom=0;right=0;pointerEvents=1;" vertex="1" parent="DlH9ydsDUNCEq7BIyBJi-161">
          <mxGeometry x="120" width="10" height="10" as="geometry">
            <mxRectangle width="10" height="10" as="alternateBounds" />
          </mxGeometry>
        </mxCell>
        <mxCell id="DlH9ydsDUNCEq7BIyBJi-175" value="" style="shape=partialRectangle;html=1;whiteSpace=wrap;connectable=0;strokeColor=inherit;overflow=hidden;fillColor=none;top=0;left=0;bottom=0;right=0;pointerEvents=1;" vertex="1" parent="DlH9ydsDUNCEq7BIyBJi-161">
          <mxGeometry x="130" width="10" height="10" as="geometry">
            <mxRectangle width="10" height="10" as="alternateBounds" />
          </mxGeometry>
        </mxCell>
        <mxCell id="DlH9ydsDUNCEq7BIyBJi-176" value="" style="shape=partialRectangle;html=1;whiteSpace=wrap;connectable=0;strokeColor=inherit;overflow=hidden;fillColor=none;top=0;left=0;bottom=0;right=0;pointerEvents=1;" vertex="1" parent="DlH9ydsDUNCEq7BIyBJi-161">
          <mxGeometry x="140" width="10" height="10" as="geometry">
            <mxRectangle width="10" height="10" as="alternateBounds" />
          </mxGeometry>
        </mxCell>
        <mxCell id="DlH9ydsDUNCEq7BIyBJi-177" value="" style="shape=tableRow;horizontal=0;startSize=0;swimlaneHead=0;swimlaneBody=0;strokeColor=inherit;top=0;left=0;bottom=0;right=0;collapsible=0;dropTarget=0;fillColor=none;points=[[0,0.5],[1,0.5]];portConstraint=eastwest;" vertex="1" parent="DlH9ydsDUNCEq7BIyBJi-32">
          <mxGeometry y="90" width="150" height="10" as="geometry" />
        </mxCell>
        <mxCell id="DlH9ydsDUNCEq7BIyBJi-178" value="" style="shape=partialRectangle;html=1;whiteSpace=wrap;connectable=0;strokeColor=inherit;overflow=hidden;fillColor=none;top=0;left=0;bottom=0;right=0;pointerEvents=1;" vertex="1" parent="DlH9ydsDUNCEq7BIyBJi-177">
          <mxGeometry width="10" height="10" as="geometry">
            <mxRectangle width="10" height="10" as="alternateBounds" />
          </mxGeometry>
        </mxCell>
        <mxCell id="DlH9ydsDUNCEq7BIyBJi-179" value="" style="shape=partialRectangle;html=1;whiteSpace=wrap;connectable=0;strokeColor=inherit;overflow=hidden;fillColor=none;top=0;left=0;bottom=0;right=0;pointerEvents=1;" vertex="1" parent="DlH9ydsDUNCEq7BIyBJi-177">
          <mxGeometry x="10" width="10" height="10" as="geometry">
            <mxRectangle width="10" height="10" as="alternateBounds" />
          </mxGeometry>
        </mxCell>
        <mxCell id="DlH9ydsDUNCEq7BIyBJi-180" value="" style="shape=partialRectangle;html=1;whiteSpace=wrap;connectable=0;strokeColor=inherit;overflow=hidden;fillColor=none;top=0;left=0;bottom=0;right=0;pointerEvents=1;" vertex="1" parent="DlH9ydsDUNCEq7BIyBJi-177">
          <mxGeometry x="20" width="10" height="10" as="geometry">
            <mxRectangle width="10" height="10" as="alternateBounds" />
          </mxGeometry>
        </mxCell>
        <mxCell id="DlH9ydsDUNCEq7BIyBJi-181" value="" style="shape=partialRectangle;html=1;whiteSpace=wrap;connectable=0;strokeColor=inherit;overflow=hidden;fillColor=none;top=0;left=0;bottom=0;right=0;pointerEvents=1;" vertex="1" parent="DlH9ydsDUNCEq7BIyBJi-177">
          <mxGeometry x="30" width="10" height="10" as="geometry">
            <mxRectangle width="10" height="10" as="alternateBounds" />
          </mxGeometry>
        </mxCell>
        <mxCell id="DlH9ydsDUNCEq7BIyBJi-182" value="" style="shape=partialRectangle;html=1;whiteSpace=wrap;connectable=0;strokeColor=inherit;overflow=hidden;fillColor=none;top=0;left=0;bottom=0;right=0;pointerEvents=1;" vertex="1" parent="DlH9ydsDUNCEq7BIyBJi-177">
          <mxGeometry x="40" width="10" height="10" as="geometry">
            <mxRectangle width="10" height="10" as="alternateBounds" />
          </mxGeometry>
        </mxCell>
        <mxCell id="DlH9ydsDUNCEq7BIyBJi-183" value="" style="shape=partialRectangle;html=1;whiteSpace=wrap;connectable=0;strokeColor=inherit;overflow=hidden;fillColor=none;top=0;left=0;bottom=0;right=0;pointerEvents=1;" vertex="1" parent="DlH9ydsDUNCEq7BIyBJi-177">
          <mxGeometry x="50" width="10" height="10" as="geometry">
            <mxRectangle width="10" height="10" as="alternateBounds" />
          </mxGeometry>
        </mxCell>
        <mxCell id="DlH9ydsDUNCEq7BIyBJi-184" value="" style="shape=partialRectangle;html=1;whiteSpace=wrap;connectable=0;strokeColor=inherit;overflow=hidden;fillColor=none;top=0;left=0;bottom=0;right=0;pointerEvents=1;" vertex="1" parent="DlH9ydsDUNCEq7BIyBJi-177">
          <mxGeometry x="60" width="10" height="10" as="geometry">
            <mxRectangle width="10" height="10" as="alternateBounds" />
          </mxGeometry>
        </mxCell>
        <mxCell id="DlH9ydsDUNCEq7BIyBJi-185" value="" style="shape=partialRectangle;html=1;whiteSpace=wrap;connectable=0;strokeColor=inherit;overflow=hidden;fillColor=none;top=0;left=0;bottom=0;right=0;pointerEvents=1;" vertex="1" parent="DlH9ydsDUNCEq7BIyBJi-177">
          <mxGeometry x="70" width="10" height="10" as="geometry">
            <mxRectangle width="10" height="10" as="alternateBounds" />
          </mxGeometry>
        </mxCell>
        <mxCell id="DlH9ydsDUNCEq7BIyBJi-186" value="" style="shape=partialRectangle;html=1;whiteSpace=wrap;connectable=0;strokeColor=inherit;overflow=hidden;fillColor=none;top=0;left=0;bottom=0;right=0;pointerEvents=1;" vertex="1" parent="DlH9ydsDUNCEq7BIyBJi-177">
          <mxGeometry x="80" width="10" height="10" as="geometry">
            <mxRectangle width="10" height="10" as="alternateBounds" />
          </mxGeometry>
        </mxCell>
        <mxCell id="DlH9ydsDUNCEq7BIyBJi-187" value="" style="shape=partialRectangle;html=1;whiteSpace=wrap;connectable=0;strokeColor=inherit;overflow=hidden;fillColor=none;top=0;left=0;bottom=0;right=0;pointerEvents=1;" vertex="1" parent="DlH9ydsDUNCEq7BIyBJi-177">
          <mxGeometry x="90" width="10" height="10" as="geometry">
            <mxRectangle width="10" height="10" as="alternateBounds" />
          </mxGeometry>
        </mxCell>
        <mxCell id="DlH9ydsDUNCEq7BIyBJi-188" value="" style="shape=partialRectangle;html=1;whiteSpace=wrap;connectable=0;strokeColor=inherit;overflow=hidden;fillColor=none;top=0;left=0;bottom=0;right=0;pointerEvents=1;" vertex="1" parent="DlH9ydsDUNCEq7BIyBJi-177">
          <mxGeometry x="100" width="10" height="10" as="geometry">
            <mxRectangle width="10" height="10" as="alternateBounds" />
          </mxGeometry>
        </mxCell>
        <mxCell id="DlH9ydsDUNCEq7BIyBJi-189" value="" style="shape=partialRectangle;html=1;whiteSpace=wrap;connectable=0;strokeColor=inherit;overflow=hidden;fillColor=none;top=0;left=0;bottom=0;right=0;pointerEvents=1;" vertex="1" parent="DlH9ydsDUNCEq7BIyBJi-177">
          <mxGeometry x="110" width="10" height="10" as="geometry">
            <mxRectangle width="10" height="10" as="alternateBounds" />
          </mxGeometry>
        </mxCell>
        <mxCell id="DlH9ydsDUNCEq7BIyBJi-190" value="" style="shape=partialRectangle;html=1;whiteSpace=wrap;connectable=0;strokeColor=inherit;overflow=hidden;fillColor=none;top=0;left=0;bottom=0;right=0;pointerEvents=1;" vertex="1" parent="DlH9ydsDUNCEq7BIyBJi-177">
          <mxGeometry x="120" width="10" height="10" as="geometry">
            <mxRectangle width="10" height="10" as="alternateBounds" />
          </mxGeometry>
        </mxCell>
        <mxCell id="DlH9ydsDUNCEq7BIyBJi-191" value="" style="shape=partialRectangle;html=1;whiteSpace=wrap;connectable=0;strokeColor=inherit;overflow=hidden;fillColor=none;top=0;left=0;bottom=0;right=0;pointerEvents=1;" vertex="1" parent="DlH9ydsDUNCEq7BIyBJi-177">
          <mxGeometry x="130" width="10" height="10" as="geometry">
            <mxRectangle width="10" height="10" as="alternateBounds" />
          </mxGeometry>
        </mxCell>
        <mxCell id="DlH9ydsDUNCEq7BIyBJi-192" value="" style="shape=partialRectangle;html=1;whiteSpace=wrap;connectable=0;strokeColor=inherit;overflow=hidden;fillColor=none;top=0;left=0;bottom=0;right=0;pointerEvents=1;" vertex="1" parent="DlH9ydsDUNCEq7BIyBJi-177">
          <mxGeometry x="140" width="10" height="10" as="geometry">
            <mxRectangle width="10" height="10" as="alternateBounds" />
          </mxGeometry>
        </mxCell>
        <mxCell id="DlH9ydsDUNCEq7BIyBJi-193" value="" style="shape=tableRow;horizontal=0;startSize=0;swimlaneHead=0;swimlaneBody=0;strokeColor=inherit;top=0;left=0;bottom=0;right=0;collapsible=0;dropTarget=0;fillColor=none;points=[[0,0.5],[1,0.5]];portConstraint=eastwest;" vertex="1" parent="DlH9ydsDUNCEq7BIyBJi-32">
          <mxGeometry y="100" width="150" height="10" as="geometry" />
        </mxCell>
        <mxCell id="DlH9ydsDUNCEq7BIyBJi-194" value="" style="shape=partialRectangle;html=1;whiteSpace=wrap;connectable=0;strokeColor=inherit;overflow=hidden;fillColor=none;top=0;left=0;bottom=0;right=0;pointerEvents=1;" vertex="1" parent="DlH9ydsDUNCEq7BIyBJi-193">
          <mxGeometry width="10" height="10" as="geometry">
            <mxRectangle width="10" height="10" as="alternateBounds" />
          </mxGeometry>
        </mxCell>
        <mxCell id="DlH9ydsDUNCEq7BIyBJi-195" value="" style="shape=partialRectangle;html=1;whiteSpace=wrap;connectable=0;strokeColor=inherit;overflow=hidden;fillColor=none;top=0;left=0;bottom=0;right=0;pointerEvents=1;" vertex="1" parent="DlH9ydsDUNCEq7BIyBJi-193">
          <mxGeometry x="10" width="10" height="10" as="geometry">
            <mxRectangle width="10" height="10" as="alternateBounds" />
          </mxGeometry>
        </mxCell>
        <mxCell id="DlH9ydsDUNCEq7BIyBJi-196" value="" style="shape=partialRectangle;html=1;whiteSpace=wrap;connectable=0;strokeColor=inherit;overflow=hidden;fillColor=none;top=0;left=0;bottom=0;right=0;pointerEvents=1;" vertex="1" parent="DlH9ydsDUNCEq7BIyBJi-193">
          <mxGeometry x="20" width="10" height="10" as="geometry">
            <mxRectangle width="10" height="10" as="alternateBounds" />
          </mxGeometry>
        </mxCell>
        <mxCell id="DlH9ydsDUNCEq7BIyBJi-197" value="" style="shape=partialRectangle;html=1;whiteSpace=wrap;connectable=0;strokeColor=inherit;overflow=hidden;fillColor=none;top=0;left=0;bottom=0;right=0;pointerEvents=1;" vertex="1" parent="DlH9ydsDUNCEq7BIyBJi-193">
          <mxGeometry x="30" width="10" height="10" as="geometry">
            <mxRectangle width="10" height="10" as="alternateBounds" />
          </mxGeometry>
        </mxCell>
        <mxCell id="DlH9ydsDUNCEq7BIyBJi-198" value="" style="shape=partialRectangle;html=1;whiteSpace=wrap;connectable=0;strokeColor=inherit;overflow=hidden;fillColor=none;top=0;left=0;bottom=0;right=0;pointerEvents=1;" vertex="1" parent="DlH9ydsDUNCEq7BIyBJi-193">
          <mxGeometry x="40" width="10" height="10" as="geometry">
            <mxRectangle width="10" height="10" as="alternateBounds" />
          </mxGeometry>
        </mxCell>
        <mxCell id="DlH9ydsDUNCEq7BIyBJi-199" value="" style="shape=partialRectangle;html=1;whiteSpace=wrap;connectable=0;strokeColor=inherit;overflow=hidden;fillColor=none;top=0;left=0;bottom=0;right=0;pointerEvents=1;" vertex="1" parent="DlH9ydsDUNCEq7BIyBJi-193">
          <mxGeometry x="50" width="10" height="10" as="geometry">
            <mxRectangle width="10" height="10" as="alternateBounds" />
          </mxGeometry>
        </mxCell>
        <mxCell id="DlH9ydsDUNCEq7BIyBJi-200" value="" style="shape=partialRectangle;html=1;whiteSpace=wrap;connectable=0;strokeColor=inherit;overflow=hidden;fillColor=none;top=0;left=0;bottom=0;right=0;pointerEvents=1;" vertex="1" parent="DlH9ydsDUNCEq7BIyBJi-193">
          <mxGeometry x="60" width="10" height="10" as="geometry">
            <mxRectangle width="10" height="10" as="alternateBounds" />
          </mxGeometry>
        </mxCell>
        <mxCell id="DlH9ydsDUNCEq7BIyBJi-201" value="" style="shape=partialRectangle;html=1;whiteSpace=wrap;connectable=0;strokeColor=inherit;overflow=hidden;fillColor=none;top=0;left=0;bottom=0;right=0;pointerEvents=1;" vertex="1" parent="DlH9ydsDUNCEq7BIyBJi-193">
          <mxGeometry x="70" width="10" height="10" as="geometry">
            <mxRectangle width="10" height="10" as="alternateBounds" />
          </mxGeometry>
        </mxCell>
        <mxCell id="DlH9ydsDUNCEq7BIyBJi-202" value="" style="shape=partialRectangle;html=1;whiteSpace=wrap;connectable=0;strokeColor=inherit;overflow=hidden;fillColor=none;top=0;left=0;bottom=0;right=0;pointerEvents=1;" vertex="1" parent="DlH9ydsDUNCEq7BIyBJi-193">
          <mxGeometry x="80" width="10" height="10" as="geometry">
            <mxRectangle width="10" height="10" as="alternateBounds" />
          </mxGeometry>
        </mxCell>
        <mxCell id="DlH9ydsDUNCEq7BIyBJi-203" value="" style="shape=partialRectangle;html=1;whiteSpace=wrap;connectable=0;strokeColor=inherit;overflow=hidden;fillColor=none;top=0;left=0;bottom=0;right=0;pointerEvents=1;" vertex="1" parent="DlH9ydsDUNCEq7BIyBJi-193">
          <mxGeometry x="90" width="10" height="10" as="geometry">
            <mxRectangle width="10" height="10" as="alternateBounds" />
          </mxGeometry>
        </mxCell>
        <mxCell id="DlH9ydsDUNCEq7BIyBJi-204" value="" style="shape=partialRectangle;html=1;whiteSpace=wrap;connectable=0;strokeColor=inherit;overflow=hidden;fillColor=none;top=0;left=0;bottom=0;right=0;pointerEvents=1;" vertex="1" parent="DlH9ydsDUNCEq7BIyBJi-193">
          <mxGeometry x="100" width="10" height="10" as="geometry">
            <mxRectangle width="10" height="10" as="alternateBounds" />
          </mxGeometry>
        </mxCell>
        <mxCell id="DlH9ydsDUNCEq7BIyBJi-205" value="" style="shape=partialRectangle;html=1;whiteSpace=wrap;connectable=0;strokeColor=inherit;overflow=hidden;fillColor=none;top=0;left=0;bottom=0;right=0;pointerEvents=1;" vertex="1" parent="DlH9ydsDUNCEq7BIyBJi-193">
          <mxGeometry x="110" width="10" height="10" as="geometry">
            <mxRectangle width="10" height="10" as="alternateBounds" />
          </mxGeometry>
        </mxCell>
        <mxCell id="DlH9ydsDUNCEq7BIyBJi-206" value="" style="shape=partialRectangle;html=1;whiteSpace=wrap;connectable=0;strokeColor=inherit;overflow=hidden;fillColor=none;top=0;left=0;bottom=0;right=0;pointerEvents=1;" vertex="1" parent="DlH9ydsDUNCEq7BIyBJi-193">
          <mxGeometry x="120" width="10" height="10" as="geometry">
            <mxRectangle width="10" height="10" as="alternateBounds" />
          </mxGeometry>
        </mxCell>
        <mxCell id="DlH9ydsDUNCEq7BIyBJi-207" value="" style="shape=partialRectangle;html=1;whiteSpace=wrap;connectable=0;strokeColor=inherit;overflow=hidden;fillColor=none;top=0;left=0;bottom=0;right=0;pointerEvents=1;" vertex="1" parent="DlH9ydsDUNCEq7BIyBJi-193">
          <mxGeometry x="130" width="10" height="10" as="geometry">
            <mxRectangle width="10" height="10" as="alternateBounds" />
          </mxGeometry>
        </mxCell>
        <mxCell id="DlH9ydsDUNCEq7BIyBJi-208" value="" style="shape=partialRectangle;html=1;whiteSpace=wrap;connectable=0;strokeColor=inherit;overflow=hidden;fillColor=none;top=0;left=0;bottom=0;right=0;pointerEvents=1;" vertex="1" parent="DlH9ydsDUNCEq7BIyBJi-193">
          <mxGeometry x="140" width="10" height="10" as="geometry">
            <mxRectangle width="10" height="10" as="alternateBounds" />
          </mxGeometry>
        </mxCell>
        <mxCell id="DlH9ydsDUNCEq7BIyBJi-209" value="" style="shape=tableRow;horizontal=0;startSize=0;swimlaneHead=0;swimlaneBody=0;strokeColor=inherit;top=0;left=0;bottom=0;right=0;collapsible=0;dropTarget=0;fillColor=none;points=[[0,0.5],[1,0.5]];portConstraint=eastwest;" vertex="1" parent="DlH9ydsDUNCEq7BIyBJi-32">
          <mxGeometry y="110" width="150" height="10" as="geometry" />
        </mxCell>
        <mxCell id="DlH9ydsDUNCEq7BIyBJi-210" value="" style="shape=partialRectangle;html=1;whiteSpace=wrap;connectable=0;strokeColor=inherit;overflow=hidden;fillColor=none;top=0;left=0;bottom=0;right=0;pointerEvents=1;" vertex="1" parent="DlH9ydsDUNCEq7BIyBJi-209">
          <mxGeometry width="10" height="10" as="geometry">
            <mxRectangle width="10" height="10" as="alternateBounds" />
          </mxGeometry>
        </mxCell>
        <mxCell id="DlH9ydsDUNCEq7BIyBJi-211" value="" style="shape=partialRectangle;html=1;whiteSpace=wrap;connectable=0;strokeColor=inherit;overflow=hidden;fillColor=none;top=0;left=0;bottom=0;right=0;pointerEvents=1;" vertex="1" parent="DlH9ydsDUNCEq7BIyBJi-209">
          <mxGeometry x="10" width="10" height="10" as="geometry">
            <mxRectangle width="10" height="10" as="alternateBounds" />
          </mxGeometry>
        </mxCell>
        <mxCell id="DlH9ydsDUNCEq7BIyBJi-212" value="" style="shape=partialRectangle;html=1;whiteSpace=wrap;connectable=0;strokeColor=inherit;overflow=hidden;fillColor=none;top=0;left=0;bottom=0;right=0;pointerEvents=1;" vertex="1" parent="DlH9ydsDUNCEq7BIyBJi-209">
          <mxGeometry x="20" width="10" height="10" as="geometry">
            <mxRectangle width="10" height="10" as="alternateBounds" />
          </mxGeometry>
        </mxCell>
        <mxCell id="DlH9ydsDUNCEq7BIyBJi-213" value="" style="shape=partialRectangle;html=1;whiteSpace=wrap;connectable=0;strokeColor=inherit;overflow=hidden;fillColor=none;top=0;left=0;bottom=0;right=0;pointerEvents=1;" vertex="1" parent="DlH9ydsDUNCEq7BIyBJi-209">
          <mxGeometry x="30" width="10" height="10" as="geometry">
            <mxRectangle width="10" height="10" as="alternateBounds" />
          </mxGeometry>
        </mxCell>
        <mxCell id="DlH9ydsDUNCEq7BIyBJi-214" value="" style="shape=partialRectangle;html=1;whiteSpace=wrap;connectable=0;strokeColor=inherit;overflow=hidden;fillColor=none;top=0;left=0;bottom=0;right=0;pointerEvents=1;" vertex="1" parent="DlH9ydsDUNCEq7BIyBJi-209">
          <mxGeometry x="40" width="10" height="10" as="geometry">
            <mxRectangle width="10" height="10" as="alternateBounds" />
          </mxGeometry>
        </mxCell>
        <mxCell id="DlH9ydsDUNCEq7BIyBJi-215" value="" style="shape=partialRectangle;html=1;whiteSpace=wrap;connectable=0;strokeColor=inherit;overflow=hidden;fillColor=none;top=0;left=0;bottom=0;right=0;pointerEvents=1;" vertex="1" parent="DlH9ydsDUNCEq7BIyBJi-209">
          <mxGeometry x="50" width="10" height="10" as="geometry">
            <mxRectangle width="10" height="10" as="alternateBounds" />
          </mxGeometry>
        </mxCell>
        <mxCell id="DlH9ydsDUNCEq7BIyBJi-216" value="" style="shape=partialRectangle;html=1;whiteSpace=wrap;connectable=0;strokeColor=inherit;overflow=hidden;fillColor=none;top=0;left=0;bottom=0;right=0;pointerEvents=1;" vertex="1" parent="DlH9ydsDUNCEq7BIyBJi-209">
          <mxGeometry x="60" width="10" height="10" as="geometry">
            <mxRectangle width="10" height="10" as="alternateBounds" />
          </mxGeometry>
        </mxCell>
        <mxCell id="DlH9ydsDUNCEq7BIyBJi-217" value="" style="shape=partialRectangle;html=1;whiteSpace=wrap;connectable=0;strokeColor=inherit;overflow=hidden;fillColor=none;top=0;left=0;bottom=0;right=0;pointerEvents=1;" vertex="1" parent="DlH9ydsDUNCEq7BIyBJi-209">
          <mxGeometry x="70" width="10" height="10" as="geometry">
            <mxRectangle width="10" height="10" as="alternateBounds" />
          </mxGeometry>
        </mxCell>
        <mxCell id="DlH9ydsDUNCEq7BIyBJi-218" value="" style="shape=partialRectangle;html=1;whiteSpace=wrap;connectable=0;strokeColor=inherit;overflow=hidden;fillColor=none;top=0;left=0;bottom=0;right=0;pointerEvents=1;" vertex="1" parent="DlH9ydsDUNCEq7BIyBJi-209">
          <mxGeometry x="80" width="10" height="10" as="geometry">
            <mxRectangle width="10" height="10" as="alternateBounds" />
          </mxGeometry>
        </mxCell>
        <mxCell id="DlH9ydsDUNCEq7BIyBJi-219" value="" style="shape=partialRectangle;html=1;whiteSpace=wrap;connectable=0;strokeColor=inherit;overflow=hidden;fillColor=none;top=0;left=0;bottom=0;right=0;pointerEvents=1;" vertex="1" parent="DlH9ydsDUNCEq7BIyBJi-209">
          <mxGeometry x="90" width="10" height="10" as="geometry">
            <mxRectangle width="10" height="10" as="alternateBounds" />
          </mxGeometry>
        </mxCell>
        <mxCell id="DlH9ydsDUNCEq7BIyBJi-220" value="" style="shape=partialRectangle;html=1;whiteSpace=wrap;connectable=0;strokeColor=inherit;overflow=hidden;fillColor=none;top=0;left=0;bottom=0;right=0;pointerEvents=1;" vertex="1" parent="DlH9ydsDUNCEq7BIyBJi-209">
          <mxGeometry x="100" width="10" height="10" as="geometry">
            <mxRectangle width="10" height="10" as="alternateBounds" />
          </mxGeometry>
        </mxCell>
        <mxCell id="DlH9ydsDUNCEq7BIyBJi-221" value="" style="shape=partialRectangle;html=1;whiteSpace=wrap;connectable=0;strokeColor=inherit;overflow=hidden;fillColor=none;top=0;left=0;bottom=0;right=0;pointerEvents=1;" vertex="1" parent="DlH9ydsDUNCEq7BIyBJi-209">
          <mxGeometry x="110" width="10" height="10" as="geometry">
            <mxRectangle width="10" height="10" as="alternateBounds" />
          </mxGeometry>
        </mxCell>
        <mxCell id="DlH9ydsDUNCEq7BIyBJi-222" value="" style="shape=partialRectangle;html=1;whiteSpace=wrap;connectable=0;strokeColor=inherit;overflow=hidden;fillColor=none;top=0;left=0;bottom=0;right=0;pointerEvents=1;" vertex="1" parent="DlH9ydsDUNCEq7BIyBJi-209">
          <mxGeometry x="120" width="10" height="10" as="geometry">
            <mxRectangle width="10" height="10" as="alternateBounds" />
          </mxGeometry>
        </mxCell>
        <mxCell id="DlH9ydsDUNCEq7BIyBJi-223" value="" style="shape=partialRectangle;html=1;whiteSpace=wrap;connectable=0;strokeColor=inherit;overflow=hidden;fillColor=none;top=0;left=0;bottom=0;right=0;pointerEvents=1;" vertex="1" parent="DlH9ydsDUNCEq7BIyBJi-209">
          <mxGeometry x="130" width="10" height="10" as="geometry">
            <mxRectangle width="10" height="10" as="alternateBounds" />
          </mxGeometry>
        </mxCell>
        <mxCell id="DlH9ydsDUNCEq7BIyBJi-224" value="" style="shape=partialRectangle;html=1;whiteSpace=wrap;connectable=0;strokeColor=inherit;overflow=hidden;fillColor=none;top=0;left=0;bottom=0;right=0;pointerEvents=1;" vertex="1" parent="DlH9ydsDUNCEq7BIyBJi-209">
          <mxGeometry x="140" width="10" height="10" as="geometry">
            <mxRectangle width="10" height="10" as="alternateBounds" />
          </mxGeometry>
        </mxCell>
        <mxCell id="DlH9ydsDUNCEq7BIyBJi-225" value="" style="shape=tableRow;horizontal=0;startSize=0;swimlaneHead=0;swimlaneBody=0;strokeColor=inherit;top=0;left=0;bottom=0;right=0;collapsible=0;dropTarget=0;fillColor=none;points=[[0,0.5],[1,0.5]];portConstraint=eastwest;" vertex="1" parent="DlH9ydsDUNCEq7BIyBJi-32">
          <mxGeometry y="120" width="150" height="10" as="geometry" />
        </mxCell>
        <mxCell id="DlH9ydsDUNCEq7BIyBJi-226" value="" style="shape=partialRectangle;html=1;whiteSpace=wrap;connectable=0;strokeColor=inherit;overflow=hidden;fillColor=none;top=0;left=0;bottom=0;right=0;pointerEvents=1;" vertex="1" parent="DlH9ydsDUNCEq7BIyBJi-225">
          <mxGeometry width="10" height="10" as="geometry">
            <mxRectangle width="10" height="10" as="alternateBounds" />
          </mxGeometry>
        </mxCell>
        <mxCell id="DlH9ydsDUNCEq7BIyBJi-227" value="" style="shape=partialRectangle;html=1;whiteSpace=wrap;connectable=0;strokeColor=inherit;overflow=hidden;fillColor=none;top=0;left=0;bottom=0;right=0;pointerEvents=1;" vertex="1" parent="DlH9ydsDUNCEq7BIyBJi-225">
          <mxGeometry x="10" width="10" height="10" as="geometry">
            <mxRectangle width="10" height="10" as="alternateBounds" />
          </mxGeometry>
        </mxCell>
        <mxCell id="DlH9ydsDUNCEq7BIyBJi-228" value="" style="shape=partialRectangle;html=1;whiteSpace=wrap;connectable=0;strokeColor=inherit;overflow=hidden;fillColor=none;top=0;left=0;bottom=0;right=0;pointerEvents=1;" vertex="1" parent="DlH9ydsDUNCEq7BIyBJi-225">
          <mxGeometry x="20" width="10" height="10" as="geometry">
            <mxRectangle width="10" height="10" as="alternateBounds" />
          </mxGeometry>
        </mxCell>
        <mxCell id="DlH9ydsDUNCEq7BIyBJi-229" value="" style="shape=partialRectangle;html=1;whiteSpace=wrap;connectable=0;strokeColor=inherit;overflow=hidden;fillColor=none;top=0;left=0;bottom=0;right=0;pointerEvents=1;" vertex="1" parent="DlH9ydsDUNCEq7BIyBJi-225">
          <mxGeometry x="30" width="10" height="10" as="geometry">
            <mxRectangle width="10" height="10" as="alternateBounds" />
          </mxGeometry>
        </mxCell>
        <mxCell id="DlH9ydsDUNCEq7BIyBJi-230" value="" style="shape=partialRectangle;html=1;whiteSpace=wrap;connectable=0;strokeColor=inherit;overflow=hidden;fillColor=none;top=0;left=0;bottom=0;right=0;pointerEvents=1;" vertex="1" parent="DlH9ydsDUNCEq7BIyBJi-225">
          <mxGeometry x="40" width="10" height="10" as="geometry">
            <mxRectangle width="10" height="10" as="alternateBounds" />
          </mxGeometry>
        </mxCell>
        <mxCell id="DlH9ydsDUNCEq7BIyBJi-231" value="" style="shape=partialRectangle;html=1;whiteSpace=wrap;connectable=0;strokeColor=inherit;overflow=hidden;fillColor=none;top=0;left=0;bottom=0;right=0;pointerEvents=1;" vertex="1" parent="DlH9ydsDUNCEq7BIyBJi-225">
          <mxGeometry x="50" width="10" height="10" as="geometry">
            <mxRectangle width="10" height="10" as="alternateBounds" />
          </mxGeometry>
        </mxCell>
        <mxCell id="DlH9ydsDUNCEq7BIyBJi-232" value="" style="shape=partialRectangle;html=1;whiteSpace=wrap;connectable=0;strokeColor=inherit;overflow=hidden;fillColor=none;top=0;left=0;bottom=0;right=0;pointerEvents=1;" vertex="1" parent="DlH9ydsDUNCEq7BIyBJi-225">
          <mxGeometry x="60" width="10" height="10" as="geometry">
            <mxRectangle width="10" height="10" as="alternateBounds" />
          </mxGeometry>
        </mxCell>
        <mxCell id="DlH9ydsDUNCEq7BIyBJi-233" value="" style="shape=partialRectangle;html=1;whiteSpace=wrap;connectable=0;strokeColor=inherit;overflow=hidden;fillColor=none;top=0;left=0;bottom=0;right=0;pointerEvents=1;" vertex="1" parent="DlH9ydsDUNCEq7BIyBJi-225">
          <mxGeometry x="70" width="10" height="10" as="geometry">
            <mxRectangle width="10" height="10" as="alternateBounds" />
          </mxGeometry>
        </mxCell>
        <mxCell id="DlH9ydsDUNCEq7BIyBJi-234" value="" style="shape=partialRectangle;html=1;whiteSpace=wrap;connectable=0;strokeColor=inherit;overflow=hidden;fillColor=none;top=0;left=0;bottom=0;right=0;pointerEvents=1;" vertex="1" parent="DlH9ydsDUNCEq7BIyBJi-225">
          <mxGeometry x="80" width="10" height="10" as="geometry">
            <mxRectangle width="10" height="10" as="alternateBounds" />
          </mxGeometry>
        </mxCell>
        <mxCell id="DlH9ydsDUNCEq7BIyBJi-235" value="" style="shape=partialRectangle;html=1;whiteSpace=wrap;connectable=0;strokeColor=inherit;overflow=hidden;fillColor=none;top=0;left=0;bottom=0;right=0;pointerEvents=1;" vertex="1" parent="DlH9ydsDUNCEq7BIyBJi-225">
          <mxGeometry x="90" width="10" height="10" as="geometry">
            <mxRectangle width="10" height="10" as="alternateBounds" />
          </mxGeometry>
        </mxCell>
        <mxCell id="DlH9ydsDUNCEq7BIyBJi-236" value="" style="shape=partialRectangle;html=1;whiteSpace=wrap;connectable=0;strokeColor=inherit;overflow=hidden;fillColor=none;top=0;left=0;bottom=0;right=0;pointerEvents=1;" vertex="1" parent="DlH9ydsDUNCEq7BIyBJi-225">
          <mxGeometry x="100" width="10" height="10" as="geometry">
            <mxRectangle width="10" height="10" as="alternateBounds" />
          </mxGeometry>
        </mxCell>
        <mxCell id="DlH9ydsDUNCEq7BIyBJi-237" value="" style="shape=partialRectangle;html=1;whiteSpace=wrap;connectable=0;strokeColor=inherit;overflow=hidden;fillColor=none;top=0;left=0;bottom=0;right=0;pointerEvents=1;" vertex="1" parent="DlH9ydsDUNCEq7BIyBJi-225">
          <mxGeometry x="110" width="10" height="10" as="geometry">
            <mxRectangle width="10" height="10" as="alternateBounds" />
          </mxGeometry>
        </mxCell>
        <mxCell id="DlH9ydsDUNCEq7BIyBJi-238" value="" style="shape=partialRectangle;html=1;whiteSpace=wrap;connectable=0;strokeColor=inherit;overflow=hidden;fillColor=none;top=0;left=0;bottom=0;right=0;pointerEvents=1;" vertex="1" parent="DlH9ydsDUNCEq7BIyBJi-225">
          <mxGeometry x="120" width="10" height="10" as="geometry">
            <mxRectangle width="10" height="10" as="alternateBounds" />
          </mxGeometry>
        </mxCell>
        <mxCell id="DlH9ydsDUNCEq7BIyBJi-239" value="" style="shape=partialRectangle;html=1;whiteSpace=wrap;connectable=0;strokeColor=inherit;overflow=hidden;fillColor=none;top=0;left=0;bottom=0;right=0;pointerEvents=1;" vertex="1" parent="DlH9ydsDUNCEq7BIyBJi-225">
          <mxGeometry x="130" width="10" height="10" as="geometry">
            <mxRectangle width="10" height="10" as="alternateBounds" />
          </mxGeometry>
        </mxCell>
        <mxCell id="DlH9ydsDUNCEq7BIyBJi-240" value="" style="shape=partialRectangle;html=1;whiteSpace=wrap;connectable=0;strokeColor=inherit;overflow=hidden;fillColor=none;top=0;left=0;bottom=0;right=0;pointerEvents=1;" vertex="1" parent="DlH9ydsDUNCEq7BIyBJi-225">
          <mxGeometry x="140" width="10" height="10" as="geometry">
            <mxRectangle width="10" height="10" as="alternateBounds" />
          </mxGeometry>
        </mxCell>
        <mxCell id="DlH9ydsDUNCEq7BIyBJi-241" value="" style="shape=tableRow;horizontal=0;startSize=0;swimlaneHead=0;swimlaneBody=0;strokeColor=inherit;top=0;left=0;bottom=0;right=0;collapsible=0;dropTarget=0;fillColor=none;points=[[0,0.5],[1,0.5]];portConstraint=eastwest;" vertex="1" parent="DlH9ydsDUNCEq7BIyBJi-32">
          <mxGeometry y="130" width="150" height="10" as="geometry" />
        </mxCell>
        <mxCell id="DlH9ydsDUNCEq7BIyBJi-242" value="" style="shape=partialRectangle;html=1;whiteSpace=wrap;connectable=0;strokeColor=inherit;overflow=hidden;fillColor=none;top=0;left=0;bottom=0;right=0;pointerEvents=1;" vertex="1" parent="DlH9ydsDUNCEq7BIyBJi-241">
          <mxGeometry width="10" height="10" as="geometry">
            <mxRectangle width="10" height="10" as="alternateBounds" />
          </mxGeometry>
        </mxCell>
        <mxCell id="DlH9ydsDUNCEq7BIyBJi-243" value="" style="shape=partialRectangle;html=1;whiteSpace=wrap;connectable=0;strokeColor=inherit;overflow=hidden;fillColor=none;top=0;left=0;bottom=0;right=0;pointerEvents=1;" vertex="1" parent="DlH9ydsDUNCEq7BIyBJi-241">
          <mxGeometry x="10" width="10" height="10" as="geometry">
            <mxRectangle width="10" height="10" as="alternateBounds" />
          </mxGeometry>
        </mxCell>
        <mxCell id="DlH9ydsDUNCEq7BIyBJi-244" value="" style="shape=partialRectangle;html=1;whiteSpace=wrap;connectable=0;strokeColor=inherit;overflow=hidden;fillColor=none;top=0;left=0;bottom=0;right=0;pointerEvents=1;" vertex="1" parent="DlH9ydsDUNCEq7BIyBJi-241">
          <mxGeometry x="20" width="10" height="10" as="geometry">
            <mxRectangle width="10" height="10" as="alternateBounds" />
          </mxGeometry>
        </mxCell>
        <mxCell id="DlH9ydsDUNCEq7BIyBJi-245" value="" style="shape=partialRectangle;html=1;whiteSpace=wrap;connectable=0;strokeColor=inherit;overflow=hidden;fillColor=none;top=0;left=0;bottom=0;right=0;pointerEvents=1;" vertex="1" parent="DlH9ydsDUNCEq7BIyBJi-241">
          <mxGeometry x="30" width="10" height="10" as="geometry">
            <mxRectangle width="10" height="10" as="alternateBounds" />
          </mxGeometry>
        </mxCell>
        <mxCell id="DlH9ydsDUNCEq7BIyBJi-246" value="" style="shape=partialRectangle;html=1;whiteSpace=wrap;connectable=0;strokeColor=inherit;overflow=hidden;fillColor=none;top=0;left=0;bottom=0;right=0;pointerEvents=1;" vertex="1" parent="DlH9ydsDUNCEq7BIyBJi-241">
          <mxGeometry x="40" width="10" height="10" as="geometry">
            <mxRectangle width="10" height="10" as="alternateBounds" />
          </mxGeometry>
        </mxCell>
        <mxCell id="DlH9ydsDUNCEq7BIyBJi-247" value="" style="shape=partialRectangle;html=1;whiteSpace=wrap;connectable=0;strokeColor=inherit;overflow=hidden;fillColor=none;top=0;left=0;bottom=0;right=0;pointerEvents=1;" vertex="1" parent="DlH9ydsDUNCEq7BIyBJi-241">
          <mxGeometry x="50" width="10" height="10" as="geometry">
            <mxRectangle width="10" height="10" as="alternateBounds" />
          </mxGeometry>
        </mxCell>
        <mxCell id="DlH9ydsDUNCEq7BIyBJi-248" value="" style="shape=partialRectangle;html=1;whiteSpace=wrap;connectable=0;strokeColor=inherit;overflow=hidden;fillColor=none;top=0;left=0;bottom=0;right=0;pointerEvents=1;" vertex="1" parent="DlH9ydsDUNCEq7BIyBJi-241">
          <mxGeometry x="60" width="10" height="10" as="geometry">
            <mxRectangle width="10" height="10" as="alternateBounds" />
          </mxGeometry>
        </mxCell>
        <mxCell id="DlH9ydsDUNCEq7BIyBJi-249" value="" style="shape=partialRectangle;html=1;whiteSpace=wrap;connectable=0;strokeColor=inherit;overflow=hidden;fillColor=none;top=0;left=0;bottom=0;right=0;pointerEvents=1;" vertex="1" parent="DlH9ydsDUNCEq7BIyBJi-241">
          <mxGeometry x="70" width="10" height="10" as="geometry">
            <mxRectangle width="10" height="10" as="alternateBounds" />
          </mxGeometry>
        </mxCell>
        <mxCell id="DlH9ydsDUNCEq7BIyBJi-250" value="" style="shape=partialRectangle;html=1;whiteSpace=wrap;connectable=0;strokeColor=inherit;overflow=hidden;fillColor=none;top=0;left=0;bottom=0;right=0;pointerEvents=1;" vertex="1" parent="DlH9ydsDUNCEq7BIyBJi-241">
          <mxGeometry x="80" width="10" height="10" as="geometry">
            <mxRectangle width="10" height="10" as="alternateBounds" />
          </mxGeometry>
        </mxCell>
        <mxCell id="DlH9ydsDUNCEq7BIyBJi-251" value="" style="shape=partialRectangle;html=1;whiteSpace=wrap;connectable=0;strokeColor=inherit;overflow=hidden;fillColor=none;top=0;left=0;bottom=0;right=0;pointerEvents=1;" vertex="1" parent="DlH9ydsDUNCEq7BIyBJi-241">
          <mxGeometry x="90" width="10" height="10" as="geometry">
            <mxRectangle width="10" height="10" as="alternateBounds" />
          </mxGeometry>
        </mxCell>
        <mxCell id="DlH9ydsDUNCEq7BIyBJi-252" value="" style="shape=partialRectangle;html=1;whiteSpace=wrap;connectable=0;strokeColor=inherit;overflow=hidden;fillColor=none;top=0;left=0;bottom=0;right=0;pointerEvents=1;" vertex="1" parent="DlH9ydsDUNCEq7BIyBJi-241">
          <mxGeometry x="100" width="10" height="10" as="geometry">
            <mxRectangle width="10" height="10" as="alternateBounds" />
          </mxGeometry>
        </mxCell>
        <mxCell id="DlH9ydsDUNCEq7BIyBJi-253" value="" style="shape=partialRectangle;html=1;whiteSpace=wrap;connectable=0;strokeColor=inherit;overflow=hidden;fillColor=none;top=0;left=0;bottom=0;right=0;pointerEvents=1;" vertex="1" parent="DlH9ydsDUNCEq7BIyBJi-241">
          <mxGeometry x="110" width="10" height="10" as="geometry">
            <mxRectangle width="10" height="10" as="alternateBounds" />
          </mxGeometry>
        </mxCell>
        <mxCell id="DlH9ydsDUNCEq7BIyBJi-254" value="" style="shape=partialRectangle;html=1;whiteSpace=wrap;connectable=0;strokeColor=inherit;overflow=hidden;fillColor=none;top=0;left=0;bottom=0;right=0;pointerEvents=1;" vertex="1" parent="DlH9ydsDUNCEq7BIyBJi-241">
          <mxGeometry x="120" width="10" height="10" as="geometry">
            <mxRectangle width="10" height="10" as="alternateBounds" />
          </mxGeometry>
        </mxCell>
        <mxCell id="DlH9ydsDUNCEq7BIyBJi-255" value="" style="shape=partialRectangle;html=1;whiteSpace=wrap;connectable=0;strokeColor=inherit;overflow=hidden;fillColor=none;top=0;left=0;bottom=0;right=0;pointerEvents=1;" vertex="1" parent="DlH9ydsDUNCEq7BIyBJi-241">
          <mxGeometry x="130" width="10" height="10" as="geometry">
            <mxRectangle width="10" height="10" as="alternateBounds" />
          </mxGeometry>
        </mxCell>
        <mxCell id="DlH9ydsDUNCEq7BIyBJi-256" value="" style="shape=partialRectangle;html=1;whiteSpace=wrap;connectable=0;strokeColor=inherit;overflow=hidden;fillColor=none;top=0;left=0;bottom=0;right=0;pointerEvents=1;" vertex="1" parent="DlH9ydsDUNCEq7BIyBJi-241">
          <mxGeometry x="140" width="10" height="10" as="geometry">
            <mxRectangle width="10" height="10" as="alternateBounds" />
          </mxGeometry>
        </mxCell>
        <mxCell id="DlH9ydsDUNCEq7BIyBJi-257" value="" style="shape=tableRow;horizontal=0;startSize=0;swimlaneHead=0;swimlaneBody=0;strokeColor=inherit;top=0;left=0;bottom=0;right=0;collapsible=0;dropTarget=0;fillColor=none;points=[[0,0.5],[1,0.5]];portConstraint=eastwest;" vertex="1" parent="DlH9ydsDUNCEq7BIyBJi-32">
          <mxGeometry y="140" width="150" height="10" as="geometry" />
        </mxCell>
        <mxCell id="DlH9ydsDUNCEq7BIyBJi-258" value="" style="shape=partialRectangle;html=1;whiteSpace=wrap;connectable=0;strokeColor=inherit;overflow=hidden;fillColor=none;top=0;left=0;bottom=0;right=0;pointerEvents=1;" vertex="1" parent="DlH9ydsDUNCEq7BIyBJi-257">
          <mxGeometry width="10" height="10" as="geometry">
            <mxRectangle width="10" height="10" as="alternateBounds" />
          </mxGeometry>
        </mxCell>
        <mxCell id="DlH9ydsDUNCEq7BIyBJi-259" value="" style="shape=partialRectangle;html=1;whiteSpace=wrap;connectable=0;strokeColor=inherit;overflow=hidden;fillColor=none;top=0;left=0;bottom=0;right=0;pointerEvents=1;" vertex="1" parent="DlH9ydsDUNCEq7BIyBJi-257">
          <mxGeometry x="10" width="10" height="10" as="geometry">
            <mxRectangle width="10" height="10" as="alternateBounds" />
          </mxGeometry>
        </mxCell>
        <mxCell id="DlH9ydsDUNCEq7BIyBJi-260" value="" style="shape=partialRectangle;html=1;whiteSpace=wrap;connectable=0;strokeColor=inherit;overflow=hidden;fillColor=none;top=0;left=0;bottom=0;right=0;pointerEvents=1;" vertex="1" parent="DlH9ydsDUNCEq7BIyBJi-257">
          <mxGeometry x="20" width="10" height="10" as="geometry">
            <mxRectangle width="10" height="10" as="alternateBounds" />
          </mxGeometry>
        </mxCell>
        <mxCell id="DlH9ydsDUNCEq7BIyBJi-261" value="" style="shape=partialRectangle;html=1;whiteSpace=wrap;connectable=0;strokeColor=inherit;overflow=hidden;fillColor=none;top=0;left=0;bottom=0;right=0;pointerEvents=1;" vertex="1" parent="DlH9ydsDUNCEq7BIyBJi-257">
          <mxGeometry x="30" width="10" height="10" as="geometry">
            <mxRectangle width="10" height="10" as="alternateBounds" />
          </mxGeometry>
        </mxCell>
        <mxCell id="DlH9ydsDUNCEq7BIyBJi-262" value="" style="shape=partialRectangle;html=1;whiteSpace=wrap;connectable=0;strokeColor=inherit;overflow=hidden;fillColor=none;top=0;left=0;bottom=0;right=0;pointerEvents=1;" vertex="1" parent="DlH9ydsDUNCEq7BIyBJi-257">
          <mxGeometry x="40" width="10" height="10" as="geometry">
            <mxRectangle width="10" height="10" as="alternateBounds" />
          </mxGeometry>
        </mxCell>
        <mxCell id="DlH9ydsDUNCEq7BIyBJi-263" value="" style="shape=partialRectangle;html=1;whiteSpace=wrap;connectable=0;strokeColor=inherit;overflow=hidden;fillColor=none;top=0;left=0;bottom=0;right=0;pointerEvents=1;" vertex="1" parent="DlH9ydsDUNCEq7BIyBJi-257">
          <mxGeometry x="50" width="10" height="10" as="geometry">
            <mxRectangle width="10" height="10" as="alternateBounds" />
          </mxGeometry>
        </mxCell>
        <mxCell id="DlH9ydsDUNCEq7BIyBJi-264" value="" style="shape=partialRectangle;html=1;whiteSpace=wrap;connectable=0;strokeColor=inherit;overflow=hidden;fillColor=none;top=0;left=0;bottom=0;right=0;pointerEvents=1;" vertex="1" parent="DlH9ydsDUNCEq7BIyBJi-257">
          <mxGeometry x="60" width="10" height="10" as="geometry">
            <mxRectangle width="10" height="10" as="alternateBounds" />
          </mxGeometry>
        </mxCell>
        <mxCell id="DlH9ydsDUNCEq7BIyBJi-265" value="" style="shape=partialRectangle;html=1;whiteSpace=wrap;connectable=0;strokeColor=inherit;overflow=hidden;fillColor=none;top=0;left=0;bottom=0;right=0;pointerEvents=1;" vertex="1" parent="DlH9ydsDUNCEq7BIyBJi-257">
          <mxGeometry x="70" width="10" height="10" as="geometry">
            <mxRectangle width="10" height="10" as="alternateBounds" />
          </mxGeometry>
        </mxCell>
        <mxCell id="DlH9ydsDUNCEq7BIyBJi-266" value="" style="shape=partialRectangle;html=1;whiteSpace=wrap;connectable=0;strokeColor=inherit;overflow=hidden;fillColor=none;top=0;left=0;bottom=0;right=0;pointerEvents=1;" vertex="1" parent="DlH9ydsDUNCEq7BIyBJi-257">
          <mxGeometry x="80" width="10" height="10" as="geometry">
            <mxRectangle width="10" height="10" as="alternateBounds" />
          </mxGeometry>
        </mxCell>
        <mxCell id="DlH9ydsDUNCEq7BIyBJi-267" value="" style="shape=partialRectangle;html=1;whiteSpace=wrap;connectable=0;strokeColor=inherit;overflow=hidden;fillColor=none;top=0;left=0;bottom=0;right=0;pointerEvents=1;" vertex="1" parent="DlH9ydsDUNCEq7BIyBJi-257">
          <mxGeometry x="90" width="10" height="10" as="geometry">
            <mxRectangle width="10" height="10" as="alternateBounds" />
          </mxGeometry>
        </mxCell>
        <mxCell id="DlH9ydsDUNCEq7BIyBJi-268" value="" style="shape=partialRectangle;html=1;whiteSpace=wrap;connectable=0;strokeColor=inherit;overflow=hidden;fillColor=none;top=0;left=0;bottom=0;right=0;pointerEvents=1;" vertex="1" parent="DlH9ydsDUNCEq7BIyBJi-257">
          <mxGeometry x="100" width="10" height="10" as="geometry">
            <mxRectangle width="10" height="10" as="alternateBounds" />
          </mxGeometry>
        </mxCell>
        <mxCell id="DlH9ydsDUNCEq7BIyBJi-269" value="" style="shape=partialRectangle;html=1;whiteSpace=wrap;connectable=0;strokeColor=inherit;overflow=hidden;fillColor=none;top=0;left=0;bottom=0;right=0;pointerEvents=1;" vertex="1" parent="DlH9ydsDUNCEq7BIyBJi-257">
          <mxGeometry x="110" width="10" height="10" as="geometry">
            <mxRectangle width="10" height="10" as="alternateBounds" />
          </mxGeometry>
        </mxCell>
        <mxCell id="DlH9ydsDUNCEq7BIyBJi-270" value="" style="shape=partialRectangle;html=1;whiteSpace=wrap;connectable=0;strokeColor=inherit;overflow=hidden;fillColor=none;top=0;left=0;bottom=0;right=0;pointerEvents=1;" vertex="1" parent="DlH9ydsDUNCEq7BIyBJi-257">
          <mxGeometry x="120" width="10" height="10" as="geometry">
            <mxRectangle width="10" height="10" as="alternateBounds" />
          </mxGeometry>
        </mxCell>
        <mxCell id="DlH9ydsDUNCEq7BIyBJi-271" value="" style="shape=partialRectangle;html=1;whiteSpace=wrap;connectable=0;strokeColor=inherit;overflow=hidden;fillColor=none;top=0;left=0;bottom=0;right=0;pointerEvents=1;" vertex="1" parent="DlH9ydsDUNCEq7BIyBJi-257">
          <mxGeometry x="130" width="10" height="10" as="geometry">
            <mxRectangle width="10" height="10" as="alternateBounds" />
          </mxGeometry>
        </mxCell>
        <mxCell id="DlH9ydsDUNCEq7BIyBJi-272" value="" style="shape=partialRectangle;html=1;whiteSpace=wrap;connectable=0;strokeColor=inherit;overflow=hidden;fillColor=none;top=0;left=0;bottom=0;right=0;pointerEvents=1;" vertex="1" parent="DlH9ydsDUNCEq7BIyBJi-257">
          <mxGeometry x="140" width="10" height="10" as="geometry">
            <mxRectangle width="10" height="10" as="alternateBounds" />
          </mxGeometry>
        </mxCell>
        <mxCell id="DlH9ydsDUNCEq7BIyBJi-276" style="edgeStyle=orthogonalEdgeStyle;rounded=0;orthogonalLoop=1;jettySize=auto;html=1;entryX=0.5;entryY=1;entryDx=0;entryDy=0;endArrow=oval;endFill=0;startFill=0;startArrow=ERmany;" edge="1" parent="1" source="DlH9ydsDUNCEq7BIyBJi-49" target="DlH9ydsDUNCEq7BIyBJi-277">
          <mxGeometry relative="1" as="geometry">
            <mxPoint x="200" y="440" as="targetPoint" />
          </mxGeometry>
        </mxCell>
        <mxCell id="DlH9ydsDUNCEq7BIyBJi-282" style="edgeStyle=orthogonalEdgeStyle;rounded=0;orthogonalLoop=1;jettySize=auto;html=1;entryX=0;entryY=0.5;entryDx=0;entryDy=0;" edge="1" parent="1" source="DlH9ydsDUNCEq7BIyBJi-277" target="DlH9ydsDUNCEq7BIyBJi-3">
          <mxGeometry relative="1" as="geometry" />
        </mxCell>
        <mxCell id="DlH9ydsDUNCEq7BIyBJi-277" value="" style="ellipse;whiteSpace=wrap;html=1;aspect=fixed;" vertex="1" parent="1">
          <mxGeometry x="190" y="430" width="20" height="20" as="geometry" />
        </mxCell>
        <mxCell id="DlH9ydsDUNCEq7BIyBJi-295" value="" style="group" vertex="1" connectable="0" parent="1">
          <mxGeometry x="180" y="720" width="450" height="60" as="geometry" />
        </mxCell>
        <mxCell id="DlH9ydsDUNCEq7BIyBJi-284" style="edgeStyle=orthogonalEdgeStyle;rounded=0;orthogonalLoop=1;jettySize=auto;html=1;entryX=0;entryY=0.5;entryDx=0;entryDy=0;endArrow=none;startFill=0;" edge="1" parent="DlH9ydsDUNCEq7BIyBJi-295" source="DlH9ydsDUNCEq7BIyBJi-285" target="DlH9ydsDUNCEq7BIyBJi-294">
          <mxGeometry relative="1" as="geometry">
            <mxPoint x="90" y="30" as="targetPoint" />
          </mxGeometry>
        </mxCell>
        <mxCell id="DlH9ydsDUNCEq7BIyBJi-285" value="&lt;font&gt;S&lt;/font&gt;" style="ellipse;whiteSpace=wrap;html=1;aspect=fixed;strokeWidth=2;fontSize=23;" vertex="1" parent="DlH9ydsDUNCEq7BIyBJi-295">
          <mxGeometry width="60" height="60" as="geometry" />
        </mxCell>
        <mxCell id="DlH9ydsDUNCEq7BIyBJi-286" style="edgeStyle=orthogonalEdgeStyle;rounded=0;orthogonalLoop=1;jettySize=auto;html=1;" edge="1" parent="DlH9ydsDUNCEq7BIyBJi-295" source="DlH9ydsDUNCEq7BIyBJi-287" target="DlH9ydsDUNCEq7BIyBJi-289">
          <mxGeometry relative="1" as="geometry">
            <mxPoint x="210" y="30" as="targetPoint" />
          </mxGeometry>
        </mxCell>
        <mxCell id="DlH9ydsDUNCEq7BIyBJi-287" value="E" style="ellipse;whiteSpace=wrap;html=1;fontSize=23;strokeWidth=2;" vertex="1" parent="DlH9ydsDUNCEq7BIyBJi-295">
          <mxGeometry x="120" width="60" height="60" as="geometry" />
        </mxCell>
        <mxCell id="DlH9ydsDUNCEq7BIyBJi-288" style="edgeStyle=orthogonalEdgeStyle;rounded=0;orthogonalLoop=1;jettySize=auto;html=1;entryX=0;entryY=0.5;entryDx=0;entryDy=0;" edge="1" parent="DlH9ydsDUNCEq7BIyBJi-295" source="DlH9ydsDUNCEq7BIyBJi-289" target="DlH9ydsDUNCEq7BIyBJi-291">
          <mxGeometry relative="1" as="geometry" />
        </mxCell>
        <mxCell id="DlH9ydsDUNCEq7BIyBJi-289" value="A" style="ellipse;whiteSpace=wrap;html=1;fontSize=23;strokeWidth=2;" vertex="1" parent="DlH9ydsDUNCEq7BIyBJi-295">
          <mxGeometry x="210" width="60" height="60" as="geometry" />
        </mxCell>
        <mxCell id="DlH9ydsDUNCEq7BIyBJi-290" style="edgeStyle=orthogonalEdgeStyle;rounded=0;orthogonalLoop=1;jettySize=auto;html=1;entryX=0;entryY=0.5;entryDx=0;entryDy=0;" edge="1" parent="DlH9ydsDUNCEq7BIyBJi-295" source="DlH9ydsDUNCEq7BIyBJi-291" target="DlH9ydsDUNCEq7BIyBJi-292">
          <mxGeometry relative="1" as="geometry" />
        </mxCell>
        <mxCell id="DlH9ydsDUNCEq7BIyBJi-291" value="I" style="ellipse;whiteSpace=wrap;html=1;fontSize=23;strokeWidth=2;" vertex="1" parent="DlH9ydsDUNCEq7BIyBJi-295">
          <mxGeometry x="300" width="60" height="60" as="geometry" />
        </mxCell>
        <mxCell id="DlH9ydsDUNCEq7BIyBJi-292" value="R" style="ellipse;whiteSpace=wrap;html=1;fontSize=23;strokeWidth=2;" vertex="1" parent="DlH9ydsDUNCEq7BIyBJi-295">
          <mxGeometry x="390" width="60" height="60" as="geometry" />
        </mxCell>
        <mxCell id="DlH9ydsDUNCEq7BIyBJi-293" style="edgeStyle=orthogonalEdgeStyle;rounded=0;orthogonalLoop=1;jettySize=auto;html=1;entryX=0;entryY=0.5;entryDx=0;entryDy=0;" edge="1" parent="DlH9ydsDUNCEq7BIyBJi-295" source="DlH9ydsDUNCEq7BIyBJi-294" target="DlH9ydsDUNCEq7BIyBJi-287">
          <mxGeometry relative="1" as="geometry" />
        </mxCell>
        <mxCell id="DlH9ydsDUNCEq7BIyBJi-294" value="" style="ellipse;whiteSpace=wrap;html=1;aspect=fixed;" vertex="1" parent="DlH9ydsDUNCEq7BIyBJi-295">
          <mxGeometry x="82.5" y="22.5" width="15" height="15" as="geometry" />
        </mxCell>
        <mxCell id="DlH9ydsDUNCEq7BIyBJi-298" value="" style="group" vertex="1" connectable="0" parent="1">
          <mxGeometry x="190" y="790" width="450" height="60" as="geometry" />
        </mxCell>
        <mxCell id="DlH9ydsDUNCEq7BIyBJi-299" style="edgeStyle=orthogonalEdgeStyle;rounded=0;orthogonalLoop=1;jettySize=auto;html=1;entryX=0;entryY=0.5;entryDx=0;entryDy=0;endArrow=none;startFill=0;" edge="1" parent="DlH9ydsDUNCEq7BIyBJi-298" source="DlH9ydsDUNCEq7BIyBJi-300" target="DlH9ydsDUNCEq7BIyBJi-309">
          <mxGeometry relative="1" as="geometry">
            <mxPoint x="90" y="30" as="targetPoint" />
          </mxGeometry>
        </mxCell>
        <mxCell id="DlH9ydsDUNCEq7BIyBJi-300" value="&lt;font&gt;S&lt;/font&gt;" style="ellipse;whiteSpace=wrap;html=1;aspect=fixed;strokeWidth=2;fontSize=23;" vertex="1" parent="DlH9ydsDUNCEq7BIyBJi-298">
          <mxGeometry width="60" height="60" as="geometry" />
        </mxCell>
        <mxCell id="DlH9ydsDUNCEq7BIyBJi-301" style="edgeStyle=orthogonalEdgeStyle;rounded=0;orthogonalLoop=1;jettySize=auto;html=1;" edge="1" parent="DlH9ydsDUNCEq7BIyBJi-298" source="DlH9ydsDUNCEq7BIyBJi-302" target="DlH9ydsDUNCEq7BIyBJi-304">
          <mxGeometry relative="1" as="geometry">
            <mxPoint x="210" y="30" as="targetPoint" />
          </mxGeometry>
        </mxCell>
        <mxCell id="DlH9ydsDUNCEq7BIyBJi-302" value="E" style="ellipse;whiteSpace=wrap;html=1;fontSize=23;strokeWidth=2;" vertex="1" parent="DlH9ydsDUNCEq7BIyBJi-298">
          <mxGeometry x="120" width="60" height="60" as="geometry" />
        </mxCell>
        <mxCell id="DlH9ydsDUNCEq7BIyBJi-303" style="edgeStyle=orthogonalEdgeStyle;rounded=0;orthogonalLoop=1;jettySize=auto;html=1;entryX=0;entryY=0.5;entryDx=0;entryDy=0;" edge="1" parent="DlH9ydsDUNCEq7BIyBJi-298" source="DlH9ydsDUNCEq7BIyBJi-304" target="DlH9ydsDUNCEq7BIyBJi-306">
          <mxGeometry relative="1" as="geometry" />
        </mxCell>
        <mxCell id="DlH9ydsDUNCEq7BIyBJi-304" value="A" style="ellipse;whiteSpace=wrap;html=1;fontSize=23;strokeWidth=2;" vertex="1" parent="DlH9ydsDUNCEq7BIyBJi-298">
          <mxGeometry x="210" width="60" height="60" as="geometry" />
        </mxCell>
        <mxCell id="DlH9ydsDUNCEq7BIyBJi-305" style="edgeStyle=orthogonalEdgeStyle;rounded=0;orthogonalLoop=1;jettySize=auto;html=1;entryX=0;entryY=0.5;entryDx=0;entryDy=0;" edge="1" parent="DlH9ydsDUNCEq7BIyBJi-298" source="DlH9ydsDUNCEq7BIyBJi-306" target="DlH9ydsDUNCEq7BIyBJi-307">
          <mxGeometry relative="1" as="geometry" />
        </mxCell>
        <mxCell id="DlH9ydsDUNCEq7BIyBJi-306" value="I" style="ellipse;whiteSpace=wrap;html=1;fontSize=23;strokeWidth=2;" vertex="1" parent="DlH9ydsDUNCEq7BIyBJi-298">
          <mxGeometry x="300" width="60" height="60" as="geometry" />
        </mxCell>
        <mxCell id="DlH9ydsDUNCEq7BIyBJi-307" value="R" style="ellipse;whiteSpace=wrap;html=1;fontSize=23;strokeWidth=2;" vertex="1" parent="DlH9ydsDUNCEq7BIyBJi-298">
          <mxGeometry x="390" width="60" height="60" as="geometry" />
        </mxCell>
        <mxCell id="DlH9ydsDUNCEq7BIyBJi-308" style="edgeStyle=orthogonalEdgeStyle;rounded=0;orthogonalLoop=1;jettySize=auto;html=1;entryX=0;entryY=0.5;entryDx=0;entryDy=0;" edge="1" parent="DlH9ydsDUNCEq7BIyBJi-298" source="DlH9ydsDUNCEq7BIyBJi-309" target="DlH9ydsDUNCEq7BIyBJi-302">
          <mxGeometry relative="1" as="geometry" />
        </mxCell>
        <mxCell id="DlH9ydsDUNCEq7BIyBJi-309" value="" style="ellipse;whiteSpace=wrap;html=1;aspect=fixed;" vertex="1" parent="DlH9ydsDUNCEq7BIyBJi-298">
          <mxGeometry x="82.5" y="22.5" width="15" height="15" as="geometry" />
        </mxCell>
        <mxCell id="DlH9ydsDUNCEq7BIyBJi-310" value="" style="group" vertex="1" connectable="0" parent="1">
          <mxGeometry x="200" y="860" width="450" height="60" as="geometry" />
        </mxCell>
        <mxCell id="DlH9ydsDUNCEq7BIyBJi-311" style="edgeStyle=orthogonalEdgeStyle;rounded=0;orthogonalLoop=1;jettySize=auto;html=1;entryX=0;entryY=0.5;entryDx=0;entryDy=0;endArrow=none;startFill=0;" edge="1" parent="DlH9ydsDUNCEq7BIyBJi-310" source="DlH9ydsDUNCEq7BIyBJi-312" target="DlH9ydsDUNCEq7BIyBJi-321">
          <mxGeometry relative="1" as="geometry">
            <mxPoint x="90" y="30" as="targetPoint" />
          </mxGeometry>
        </mxCell>
        <mxCell id="DlH9ydsDUNCEq7BIyBJi-312" value="&lt;font&gt;S&lt;/font&gt;" style="ellipse;whiteSpace=wrap;html=1;aspect=fixed;strokeWidth=2;fontSize=23;" vertex="1" parent="DlH9ydsDUNCEq7BIyBJi-310">
          <mxGeometry width="60" height="60" as="geometry" />
        </mxCell>
        <mxCell id="DlH9ydsDUNCEq7BIyBJi-313" style="edgeStyle=orthogonalEdgeStyle;rounded=0;orthogonalLoop=1;jettySize=auto;html=1;" edge="1" parent="DlH9ydsDUNCEq7BIyBJi-310" source="DlH9ydsDUNCEq7BIyBJi-314" target="DlH9ydsDUNCEq7BIyBJi-316">
          <mxGeometry relative="1" as="geometry">
            <mxPoint x="210" y="30" as="targetPoint" />
          </mxGeometry>
        </mxCell>
        <mxCell id="DlH9ydsDUNCEq7BIyBJi-314" value="E" style="ellipse;whiteSpace=wrap;html=1;fontSize=23;strokeWidth=2;" vertex="1" parent="DlH9ydsDUNCEq7BIyBJi-310">
          <mxGeometry x="120" width="60" height="60" as="geometry" />
        </mxCell>
        <mxCell id="DlH9ydsDUNCEq7BIyBJi-315" style="edgeStyle=orthogonalEdgeStyle;rounded=0;orthogonalLoop=1;jettySize=auto;html=1;entryX=0;entryY=0.5;entryDx=0;entryDy=0;" edge="1" parent="DlH9ydsDUNCEq7BIyBJi-310" source="DlH9ydsDUNCEq7BIyBJi-316" target="DlH9ydsDUNCEq7BIyBJi-318">
          <mxGeometry relative="1" as="geometry" />
        </mxCell>
        <mxCell id="DlH9ydsDUNCEq7BIyBJi-316" value="A" style="ellipse;whiteSpace=wrap;html=1;fontSize=23;strokeWidth=2;" vertex="1" parent="DlH9ydsDUNCEq7BIyBJi-310">
          <mxGeometry x="210" width="60" height="60" as="geometry" />
        </mxCell>
        <mxCell id="DlH9ydsDUNCEq7BIyBJi-317" style="edgeStyle=orthogonalEdgeStyle;rounded=0;orthogonalLoop=1;jettySize=auto;html=1;entryX=0;entryY=0.5;entryDx=0;entryDy=0;" edge="1" parent="DlH9ydsDUNCEq7BIyBJi-310" source="DlH9ydsDUNCEq7BIyBJi-318" target="DlH9ydsDUNCEq7BIyBJi-319">
          <mxGeometry relative="1" as="geometry" />
        </mxCell>
        <mxCell id="DlH9ydsDUNCEq7BIyBJi-318" value="I" style="ellipse;whiteSpace=wrap;html=1;fontSize=23;strokeWidth=2;" vertex="1" parent="DlH9ydsDUNCEq7BIyBJi-310">
          <mxGeometry x="300" width="60" height="60" as="geometry" />
        </mxCell>
        <mxCell id="DlH9ydsDUNCEq7BIyBJi-319" value="R" style="ellipse;whiteSpace=wrap;html=1;fontSize=23;strokeWidth=2;" vertex="1" parent="DlH9ydsDUNCEq7BIyBJi-310">
          <mxGeometry x="390" width="60" height="60" as="geometry" />
        </mxCell>
        <mxCell id="DlH9ydsDUNCEq7BIyBJi-320" style="edgeStyle=orthogonalEdgeStyle;rounded=0;orthogonalLoop=1;jettySize=auto;html=1;entryX=0;entryY=0.5;entryDx=0;entryDy=0;" edge="1" parent="DlH9ydsDUNCEq7BIyBJi-310" source="DlH9ydsDUNCEq7BIyBJi-321" target="DlH9ydsDUNCEq7BIyBJi-314">
          <mxGeometry relative="1" as="geometry" />
        </mxCell>
        <mxCell id="DlH9ydsDUNCEq7BIyBJi-321" value="" style="ellipse;whiteSpace=wrap;html=1;aspect=fixed;" vertex="1" parent="DlH9ydsDUNCEq7BIyBJi-310">
          <mxGeometry x="82.5" y="22.5" width="15" height="15" as="geometry" />
        </mxCell>
        <mxCell id="DlH9ydsDUNCEq7BIyBJi-323" value="" style="group" vertex="1" connectable="0" parent="1">
          <mxGeometry x="210" y="930" width="450" height="60" as="geometry" />
        </mxCell>
        <mxCell id="DlH9ydsDUNCEq7BIyBJi-324" style="edgeStyle=orthogonalEdgeStyle;rounded=0;orthogonalLoop=1;jettySize=auto;html=1;entryX=0;entryY=0.5;entryDx=0;entryDy=0;endArrow=none;startFill=0;" edge="1" parent="DlH9ydsDUNCEq7BIyBJi-323" source="DlH9ydsDUNCEq7BIyBJi-325" target="DlH9ydsDUNCEq7BIyBJi-334">
          <mxGeometry relative="1" as="geometry">
            <mxPoint x="90" y="30" as="targetPoint" />
          </mxGeometry>
        </mxCell>
        <mxCell id="DlH9ydsDUNCEq7BIyBJi-325" value="&lt;font&gt;S&lt;/font&gt;" style="ellipse;whiteSpace=wrap;html=1;aspect=fixed;strokeWidth=2;fontSize=23;" vertex="1" parent="DlH9ydsDUNCEq7BIyBJi-323">
          <mxGeometry width="60" height="60" as="geometry" />
        </mxCell>
        <mxCell id="DlH9ydsDUNCEq7BIyBJi-326" style="edgeStyle=orthogonalEdgeStyle;rounded=0;orthogonalLoop=1;jettySize=auto;html=1;" edge="1" parent="DlH9ydsDUNCEq7BIyBJi-323" source="DlH9ydsDUNCEq7BIyBJi-327" target="DlH9ydsDUNCEq7BIyBJi-329">
          <mxGeometry relative="1" as="geometry">
            <mxPoint x="210" y="30" as="targetPoint" />
          </mxGeometry>
        </mxCell>
        <mxCell id="DlH9ydsDUNCEq7BIyBJi-327" value="E" style="ellipse;whiteSpace=wrap;html=1;fontSize=23;strokeWidth=2;" vertex="1" parent="DlH9ydsDUNCEq7BIyBJi-323">
          <mxGeometry x="120" width="60" height="60" as="geometry" />
        </mxCell>
        <mxCell id="DlH9ydsDUNCEq7BIyBJi-328" style="edgeStyle=orthogonalEdgeStyle;rounded=0;orthogonalLoop=1;jettySize=auto;html=1;entryX=0;entryY=0.5;entryDx=0;entryDy=0;" edge="1" parent="DlH9ydsDUNCEq7BIyBJi-323" source="DlH9ydsDUNCEq7BIyBJi-329" target="DlH9ydsDUNCEq7BIyBJi-331">
          <mxGeometry relative="1" as="geometry" />
        </mxCell>
        <mxCell id="DlH9ydsDUNCEq7BIyBJi-329" value="A" style="ellipse;whiteSpace=wrap;html=1;fontSize=23;strokeWidth=2;" vertex="1" parent="DlH9ydsDUNCEq7BIyBJi-323">
          <mxGeometry x="210" width="60" height="60" as="geometry" />
        </mxCell>
        <mxCell id="DlH9ydsDUNCEq7BIyBJi-330" style="edgeStyle=orthogonalEdgeStyle;rounded=0;orthogonalLoop=1;jettySize=auto;html=1;entryX=0;entryY=0.5;entryDx=0;entryDy=0;" edge="1" parent="DlH9ydsDUNCEq7BIyBJi-323" source="DlH9ydsDUNCEq7BIyBJi-331" target="DlH9ydsDUNCEq7BIyBJi-332">
          <mxGeometry relative="1" as="geometry" />
        </mxCell>
        <mxCell id="DlH9ydsDUNCEq7BIyBJi-331" value="I" style="ellipse;whiteSpace=wrap;html=1;fontSize=23;strokeWidth=2;" vertex="1" parent="DlH9ydsDUNCEq7BIyBJi-323">
          <mxGeometry x="300" width="60" height="60" as="geometry" />
        </mxCell>
        <mxCell id="DlH9ydsDUNCEq7BIyBJi-332" value="R" style="ellipse;whiteSpace=wrap;html=1;fontSize=23;strokeWidth=2;" vertex="1" parent="DlH9ydsDUNCEq7BIyBJi-323">
          <mxGeometry x="390" width="60" height="60" as="geometry" />
        </mxCell>
        <mxCell id="DlH9ydsDUNCEq7BIyBJi-333" style="edgeStyle=orthogonalEdgeStyle;rounded=0;orthogonalLoop=1;jettySize=auto;html=1;entryX=0;entryY=0.5;entryDx=0;entryDy=0;" edge="1" parent="DlH9ydsDUNCEq7BIyBJi-323" source="DlH9ydsDUNCEq7BIyBJi-334" target="DlH9ydsDUNCEq7BIyBJi-327">
          <mxGeometry relative="1" as="geometry" />
        </mxCell>
        <mxCell id="DlH9ydsDUNCEq7BIyBJi-334" value="" style="ellipse;whiteSpace=wrap;html=1;aspect=fixed;" vertex="1" parent="DlH9ydsDUNCEq7BIyBJi-323">
          <mxGeometry x="82.5" y="22.5" width="15" height="15" as="geometry" />
        </mxCell>
        <mxCell id="DlH9ydsDUNCEq7BIyBJi-346" value="" style="endArrow=classic;html=1;rounded=0;strokeWidth=2;startArrow=baseDash;startFill=0;" edge="1" parent="1">
          <mxGeometry width="50" height="50" relative="1" as="geometry">
            <mxPoint x="140" y="750" as="sourcePoint" />
            <mxPoint x="140" y="960" as="targetPoint" />
          </mxGeometry>
        </mxCell>
        <mxCell id="DlH9ydsDUNCEq7BIyBJi-364" value="other age groups" style="text;html=1;align=center;verticalAlign=middle;resizable=0;points=[];autosize=1;strokeColor=none;fillColor=none;rotation=-90;fontSize=20;" vertex="1" parent="1">
          <mxGeometry x="20" y="830" width="170" height="40" as="geometry" />
        </mxCell>
        <mxCell id="DlH9ydsDUNCEq7BIyBJi-365" value="&lt;font style=&quot;font-size: 20px;&quot;&gt;contact&lt;/font&gt;&lt;div&gt;&lt;font style=&quot;font-size: 20px;&quot;&gt;matrix&lt;/font&gt;&lt;/div&gt;" style="text;html=1;align=center;verticalAlign=middle;resizable=0;points=[];autosize=1;fillColor=#FFFFFF;strokeColor=#36393d;rounded=1;shadow=0;" vertex="1" parent="1">
          <mxGeometry x="265" y="560" width="90" height="60" as="geometry" />
        </mxCell>
      </root>
    </mxGraphModel>
  </diagram>
</mxfile>
